<svg xmlns="http://www.w3.org/2000/svg" viewBox="0 0 960 362" width="960" height="362">
 <defs>
  <style type="text/css"><![CDATA[
    text { font-family: SFMono-Regular, Consolas, 'Liberation Mono', Menlo, monospace; }
  ]]></style>
 </defs>
 <rect x="1" y="1" width="958" height="360" rx="6" fill="#0B1226" stroke="#1B2340" stroke-width="1.2"/>
 <rect x="1" y="1" width="958" height="34" rx="6" fill="#080D1C"/>
 <rect x="1" y="18" width="958" height="17" fill="#080D1C"/>
 <line x1="1" y1="35" x2="959" y2="35" stroke="#1B2340" stroke-width="1"/>
 <text x="34" y="23" font-size="11.5" letter-spacing="2" fill="#B39DFF">SYSTEM.INFO</text>
 <circle cx="926" cy="18" r="3.5" fill="#22D3EE"/>

 <text x="34" y="64" font-size="14" letter-spacing="1" fill="#22D3EE">SUBJECT</text>
 <line x1="104.8" y1="60" x2="811.8" y2="60" stroke="#1B2340" stroke-width="1.4" stroke-dasharray="1.5,4" stroke-linecap="round"/>
 <text x="926" y="64" text-anchor="end" font-size="14" fill="#E7E9F1">Aelees Bhuva</text>
 <line x1="34" y1="78" x2="926" y2="78" stroke="#1B2340" stroke-width="0.6" opacity="0.5"/>
 <text x="34" y="98" font-size="14" letter-spacing="1" fill="#22D3EE">ROLE</text>
 <line x1="78.7" y1="94" x2="673.0" y2="94" stroke="#1B2340" stroke-width="1.4" stroke-dasharray="1.5,4" stroke-linecap="round"/>
 <text x="926" y="98" text-anchor="end" font-size="14" fill="#E7E9F1">Computer Engineering Student</text>
 <line x1="34" y1="112" x2="926" y2="112" stroke="#1B2340" stroke-width="0.6" opacity="0.5"/>
 <text x="34" y="132" font-size="14" letter-spacing="1" fill="#22D3EE">EDUCATION</text>
 <line x1="122.1" y1="128" x2="586.2" y2="128" stroke="#1B2340" stroke-width="1.4" stroke-dasharray="1.5,4" stroke-linecap="round"/>
 <text x="926" y="132" text-anchor="end" font-size="14" fill="#E7E9F1">B.Tech, CHARUSAT University (3rd Year)</text>
 <line x1="34" y1="146" x2="926" y2="146" stroke="#1B2340" stroke-width="0.6" opacity="0.5"/>
 <text x="34" y="166" font-size="14" letter-spacing="1" fill="#22D3EE">ORIGIN</text>
 <line x1="96.1" y1="162" x2="794.5" y2="162" stroke="#1B2340" stroke-width="1.4" stroke-dasharray="1.5,4" stroke-linecap="round"/>
 <text x="926" y="166" text-anchor="end" font-size="14" fill="#E7E9F1">Gujarat, India</text>
 <line x1="34" y1="180" x2="926" y2="180" stroke="#1B2340" stroke-width="0.6" opacity="0.5"/>
 <text x="34" y="200" font-size="14" letter-spacing="1" fill="#22D3EE">STATUS</text>
 <line x1="96.1" y1="196" x2="655.6" y2="196" stroke="#1B2340" stroke-width="1.4" stroke-dasharray="1.5,4" stroke-linecap="round"/>
 <text x="926" y="200" text-anchor="end" font-size="14" fill="#E7E9F1">Building + Learning + Shipping</text>
 <line x1="34" y1="214" x2="926" y2="214" stroke="#1B2340" stroke-width="0.6" opacity="0.5"/>
 <text x="34" y="234" font-size="14" letter-spacing="1" fill="#22D3EE">FOCUS</text>
 <line x1="87.4" y1="230" x2="499.4" y2="230" stroke="#1B2340" stroke-width="1.4" stroke-dasharray="1.5,4" stroke-linecap="round"/>
 <text x="926" y="234" text-anchor="end" font-size="14" fill="#E7E9F1">Data Science · Machine Learning · Full-Stack Dev</text>
 <line x1="34" y1="248" x2="926" y2="248" stroke="#1B2340" stroke-width="0.6" opacity="0.5"/>
 <text x="34" y="268" font-size="14" letter-spacing="1" fill="#22D3EE">GRID.GITHUB</text>
 <line x1="139.5" y1="264" x2="733.7" y2="264" stroke="#1B2340" stroke-width="1.4" stroke-dasharray="1.5,4" stroke-linecap="round"/>
 <text x="926" y="268" text-anchor="end" font-size="14" fill="#E7E9F1">github.com/Aelees0807</text>
 <line x1="34" y1="282" x2="926" y2="282" stroke="#1B2340" stroke-width="0.6" opacity="0.5"/>
 <text x="34" y="302" font-size="14" letter-spacing="1" fill="#22D3EE">GRID.LINKEDIN</text>
 <line x1="156.8" y1="298" x2="673.0" y2="298" stroke="#1B2340" stroke-width="1.4" stroke-dasharray="1.5,4" stroke-linecap="round"/>
 <text x="926" y="302" text-anchor="end" font-size="14" fill="#E7E9F1">linkedin.com/in/aelees-bhuva</text>
</svg>
