<?xml version="1.0" encoding="utf-8" standalone="no"?>
<!DOCTYPE svg PUBLIC "-//W3C//DTD SVG 1.1//EN"
  "http://www.w3.org/Graphics/SVG/1.1/DTD/svg11.dtd">
<svg xmlns:xlink="http://www.w3.org/1999/xlink" width="835.2pt" height="331.2pt" viewBox="0 0 835.2 331.2" xmlns="http://www.w3.org/2000/svg" version="1.1">
 <defs>
  <style type="text/css"><![CDATA[
    .draw-train { animation: draw-t 1.9s cubic-bezier(.4,0,.2,1) forwards; }
    .draw-val   { animation: draw-v 1.9s cubic-bezier(.4,0,.2,1) 0.25s forwards; }
    @keyframes draw-t { to { stroke-dashoffset: 0; } }
    @keyframes draw-v { to { stroke-dashoffset: 0; } }
    .pulse-ring { animation: pulsering 2.4s ease-in-out infinite; transform-box: fill-box; transform-origin: center; }
    @keyframes pulsering { 0%,100% { opacity: 1; transform: scale(1); } 50% { opacity: .3; transform: scale(1.18); } }
    .pulse-star { animation: pulsestar 2.6s ease-in-out infinite; transform-box: fill-box; transform-origin: center; }
    @keyframes pulsestar { 0%,100% { opacity: 1; } 50% { opacity: .45; } }
  ]]></style>
 </defs>
 <rect x="1" y="1" width="833.2" height="329.2" rx="3" fill="#10141C" stroke="#232A38" stroke-width="1.2"/>

 <metadata>
  <rdf:RDF xmlns:dc="http://purl.org/dc/elements/1.1/" xmlns:cc="http://creativecommons.org/ns#" xmlns:rdf="http://www.w3.org/1999/02/22-rdf-syntax-ns#">
   <cc:Work>
    <dc:type rdf:resource="http://purl.org/dc/dcmitype/StillImage"/>
    <dc:date>2026-07-15T17:15:24.837971</dc:date>
    <dc:format>image/svg+xml</dc:format>
    <dc:creator>
     <cc:Agent>
      <dc:title>Matplotlib v3.10.8, https://matplotlib.org/</dc:title>
     </cc:Agent>
    </dc:creator>
   </cc:Work>
  </rdf:RDF>
 </metadata>
 <defs>
  <style type="text/css">*{stroke-linejoin: round; stroke-linecap: butt}</style>
 </defs>
 <g id="figure_1">
  <g id="patch_1">
   <path d="M 0 331.2 
L 835.2 331.2 
L 835.2 0 
L 0 0 
L 0 331.2 
z
" style="fill: none; opacity: 0"/>
  </g>
  <g id="axes_1">
   <g id="patch_2">
    <path d="M 53.25 284.7 
L 793.900761 284.7 
L 793.900761 14 
L 53.25 14 
L 53.25 284.7 
z
" style="fill: none"/>
   </g>
   <g id="line2d_1">
    <path d="M 53.25 236.360714 
L 793.900761 236.360714 
" clip-path="url(#p9c9e0b036c)" style="fill: none; stroke: #1a1f2a; stroke-width: 0.8; stroke-linecap: square"/>
   </g>
   <g id="line2d_2">
    <path d="M 53.25 188.021429 
L 793.900761 188.021429 
" clip-path="url(#p9c9e0b036c)" style="fill: none; stroke: #1a1f2a; stroke-width: 0.8; stroke-linecap: square"/>
   </g>
   <g id="line2d_3">
    <path d="M 53.25 139.682143 
L 793.900761 139.682143 
" clip-path="url(#p9c9e0b036c)" style="fill: none; stroke: #1a1f2a; stroke-width: 0.8; stroke-linecap: square"/>
   </g>
   <g id="line2d_4">
    <path d="M 53.25 91.342857 
L 793.900761 91.342857 
" clip-path="url(#p9c9e0b036c)" style="fill: none; stroke: #1a1f2a; stroke-width: 0.8; stroke-linecap: square"/>
   </g>
   <g id="line2d_5">
    <path d="M 53.25 43.003571 
L 793.900761 43.003571 
" clip-path="url(#p9c9e0b036c)" style="fill: none; stroke: #1a1f2a; stroke-width: 0.8; stroke-linecap: square"/>
   </g>
   <g id="matplotlib.axis_1">
    <g id="xtick_1">
     <g id="line2d_6">
      <defs>
       <path id="mb0d0883f12" d="M 0 0 
L 0 3 
" style="stroke: #7c8496; stroke-width: 0.8"/>
      </defs>
      <g>
       <use xlink:href="#mb0d0883f12" x="64.528946" y="284.7" style="fill: #7c8496; stroke: #7c8496; stroke-width: 0.8"/>
      </g>
     </g>
     <g id="text_1">
      <!-- yr 1 -->
      <g style="fill: #7c8496" transform="translate(54.294414 297.703828) scale(0.085 -0.085)">
       <defs>
        <path id="DejaVuSansMono-79" d="M 2681 1125 
Q 2538 759 2316 163 
Q 2006 -663 1900 -844 
Q 1756 -1088 1540 -1209 
Q 1325 -1331 1038 -1331 
L 575 -1331 
L 575 -850 
L 916 -850 
Q 1169 -850 1312 -703 
Q 1456 -556 1678 56 
L 325 3500 
L 934 3500 
L 1972 763 
L 2994 3500 
L 3603 3500 
L 2681 1125 
z
" transform="scale(0.015625)"/>
        <path id="DejaVuSansMono-72" d="M 3609 2778 
Q 3425 2922 3234 2987 
Q 3044 3053 2816 3053 
Q 2278 3053 1993 2715 
Q 1709 2378 1709 1741 
L 1709 0 
L 1131 0 
L 1131 3500 
L 1709 3500 
L 1709 2816 
Q 1853 3188 2151 3386 
Q 2450 3584 2859 3584 
Q 3072 3584 3256 3531 
Q 3441 3478 3609 3366 
L 3609 2778 
z
" transform="scale(0.015625)"/>
        <path id="DejaVuSansMono-20" transform="scale(0.015625)"/>
        <path id="DejaVuSansMono-31" d="M 844 531 
L 1825 531 
L 1825 4097 
L 769 3859 
L 769 4434 
L 1819 4666 
L 2450 4666 
L 2450 531 
L 3419 531 
L 3419 0 
L 844 0 
L 844 531 
z
" transform="scale(0.015625)"/>
       </defs>
       <use xlink:href="#DejaVuSansMono-79"/>
       <use xlink:href="#DejaVuSansMono-72" transform="translate(60.205078 0)"/>
       <use xlink:href="#DejaVuSansMono-20" transform="translate(120.410156 0)"/>
       <use xlink:href="#DejaVuSansMono-31" transform="translate(180.615234 0)"/>
      </g>
     </g>
    </g>
    <g id="xtick_2">
     <g id="line2d_7">
      <g>
       <use xlink:href="#mb0d0883f12" x="139.721916" y="284.7" style="fill: #7c8496; stroke: #7c8496; stroke-width: 0.8"/>
      </g>
     </g>
    </g>
    <g id="xtick_3">
     <g id="line2d_8">
      <g>
       <use xlink:href="#mb0d0883f12" x="214.914887" y="284.7" style="fill: #7c8496; stroke: #7c8496; stroke-width: 0.8"/>
      </g>
     </g>
    </g>
    <g id="xtick_4">
     <g id="line2d_9">
      <g>
       <use xlink:href="#mb0d0883f12" x="290.107858" y="284.7" style="fill: #7c8496; stroke: #7c8496; stroke-width: 0.8"/>
      </g>
     </g>
     <g id="text_2">
      <!-- yr 2 -->
      <g style="fill: #7c8496" transform="translate(279.873326 297.703828) scale(0.085 -0.085)">
       <defs>
        <path id="DejaVuSansMono-32" d="M 1166 531 
L 3309 531 
L 3309 0 
L 475 0 
L 475 531 
Q 1059 1147 1496 1619 
Q 1934 2091 2100 2284 
Q 2413 2666 2522 2902 
Q 2631 3138 2631 3384 
Q 2631 3775 2401 3997 
Q 2172 4219 1772 4219 
Q 1488 4219 1175 4116 
Q 863 4013 513 3803 
L 513 4441 
Q 834 4594 1145 4672 
Q 1456 4750 1759 4750 
Q 2444 4750 2861 4386 
Q 3278 4022 3278 3431 
Q 3278 3131 3139 2831 
Q 3000 2531 2688 2169 
Q 2513 1966 2180 1606 
Q 1847 1247 1166 531 
z
" transform="scale(0.015625)"/>
       </defs>
       <use xlink:href="#DejaVuSansMono-79"/>
       <use xlink:href="#DejaVuSansMono-72" transform="translate(60.205078 0)"/>
       <use xlink:href="#DejaVuSansMono-20" transform="translate(120.410156 0)"/>
       <use xlink:href="#DejaVuSansMono-32" transform="translate(180.615234 0)"/>
      </g>
     </g>
    </g>
    <g id="xtick_5">
     <g id="line2d_10">
      <g>
       <use xlink:href="#mb0d0883f12" x="365.300828" y="284.7" style="fill: #7c8496; stroke: #7c8496; stroke-width: 0.8"/>
      </g>
     </g>
    </g>
    <g id="xtick_6">
     <g id="line2d_11">
      <g>
       <use xlink:href="#mb0d0883f12" x="440.493799" y="284.7" style="fill: #7c8496; stroke: #7c8496; stroke-width: 0.8"/>
      </g>
     </g>
    </g>
    <g id="xtick_7">
     <g id="line2d_12">
      <g>
       <use xlink:href="#mb0d0883f12" x="515.68677" y="284.7" style="fill: #7c8496; stroke: #7c8496; stroke-width: 0.8"/>
      </g>
     </g>
     <g id="text_3">
      <!-- yr 3 -->
      <g style="fill: #7c8496" transform="translate(505.452239 297.703828) scale(0.085 -0.085)">
       <defs>
        <path id="DejaVuSansMono-33" d="M 2425 2497 
Q 2884 2375 3128 2064 
Q 3372 1753 3372 1288 
Q 3372 644 2939 276 
Q 2506 -91 1741 -91 
Q 1419 -91 1084 -31 
Q 750 28 428 141 
L 428 769 
Q 747 603 1056 522 
Q 1366 441 1672 441 
Q 2191 441 2469 675 
Q 2747 909 2747 1350 
Q 2747 1756 2469 1995 
Q 2191 2234 1716 2234 
L 1234 2234 
L 1234 2753 
L 1716 2753 
Q 2150 2753 2394 2943 
Q 2638 3134 2638 3475 
Q 2638 3834 2411 4026 
Q 2184 4219 1766 4219 
Q 1488 4219 1191 4156 
Q 894 4094 569 3969 
L 569 4550 
Q 947 4650 1242 4700 
Q 1538 4750 1766 4750 
Q 2447 4750 2855 4408 
Q 3263 4066 3263 3500 
Q 3263 3116 3048 2859 
Q 2834 2603 2425 2497 
z
" transform="scale(0.015625)"/>
       </defs>
       <use xlink:href="#DejaVuSansMono-79"/>
       <use xlink:href="#DejaVuSansMono-72" transform="translate(60.205078 0)"/>
       <use xlink:href="#DejaVuSansMono-20" transform="translate(120.410156 0)"/>
       <use xlink:href="#DejaVuSansMono-33" transform="translate(180.615234 0)"/>
      </g>
     </g>
    </g>
    <g id="xtick_8">
     <g id="line2d_13">
      <g>
       <use xlink:href="#mb0d0883f12" x="590.879741" y="284.7" style="fill: #7c8496; stroke: #7c8496; stroke-width: 0.8"/>
      </g>
     </g>
     <g id="text_4">
      <!-- now -->
      <g style="fill: #7c8496" transform="translate(583.203842 297.703828) scale(0.085 -0.085)">
       <defs>
        <path id="DejaVuSansMono-6e" d="M 3284 2169 
L 3284 0 
L 2706 0 
L 2706 2169 
Q 2706 2641 2540 2862 
Q 2375 3084 2022 3084 
Q 1619 3084 1401 2798 
Q 1184 2513 1184 1978 
L 1184 0 
L 609 0 
L 609 3500 
L 1184 3500 
L 1184 2975 
Q 1338 3275 1600 3429 
Q 1863 3584 2222 3584 
Q 2756 3584 3020 3232 
Q 3284 2881 3284 2169 
z
" transform="scale(0.015625)"/>
        <path id="DejaVuSansMono-6f" d="M 1925 3097 
Q 1488 3097 1263 2756 
Q 1038 2416 1038 1747 
Q 1038 1081 1263 739 
Q 1488 397 1925 397 
Q 2366 397 2591 739 
Q 2816 1081 2816 1747 
Q 2816 2416 2591 2756 
Q 2366 3097 1925 3097 
z
M 1925 3584 
Q 2653 3584 3039 3112 
Q 3425 2641 3425 1747 
Q 3425 850 3040 379 
Q 2656 -91 1925 -91 
Q 1197 -91 812 379 
Q 428 850 428 1747 
Q 428 2641 812 3112 
Q 1197 3584 1925 3584 
z
" transform="scale(0.015625)"/>
        <path id="DejaVuSansMono-77" d="M 0 3500 
L 569 3500 
L 1178 672 
L 1678 2478 
L 2169 2478 
L 2675 672 
L 3284 3500 
L 3853 3500 
L 3034 0 
L 2484 0 
L 1925 1919 
L 1369 0 
L 819 0 
L 0 3500 
z
" transform="scale(0.015625)"/>
       </defs>
       <use xlink:href="#DejaVuSansMono-6e"/>
       <use xlink:href="#DejaVuSansMono-6f" transform="translate(60.205078 0)"/>
       <use xlink:href="#DejaVuSansMono-77" transform="translate(120.410156 0)"/>
      </g>
     </g>
    </g>
    <g id="text_5">
     <!-- epoch  (semester progression) -->
     <g style="fill: #7c8496" transform="translate(340.645576 314.690078) scale(0.095 -0.095)">
      <defs>
       <path id="DejaVuSansMono-65" d="M 3475 1894 
L 3475 1613 
L 984 1613 
L 984 1594 
Q 984 1022 1282 709 
Q 1581 397 2125 397 
Q 2400 397 2700 484 
Q 3000 572 3341 750 
L 3341 178 
Q 3013 44 2708 -23 
Q 2403 -91 2119 -91 
Q 1303 -91 843 398 
Q 384 888 384 1747 
Q 384 2584 834 3084 
Q 1284 3584 2034 3584 
Q 2703 3584 3089 3131 
Q 3475 2678 3475 1894 
z
M 2900 2063 
Q 2888 2569 2661 2833 
Q 2434 3097 2009 3097 
Q 1594 3097 1325 2822 
Q 1056 2547 1006 2059 
L 2900 2063 
z
" transform="scale(0.015625)"/>
       <path id="DejaVuSansMono-70" d="M 1172 441 
L 1172 -1331 
L 594 -1331 
L 594 3500 
L 1172 3500 
L 1172 3053 
Q 1316 3313 1555 3448 
Q 1794 3584 2106 3584 
Q 2741 3584 3102 3093 
Q 3463 2603 3463 1734 
Q 3463 881 3100 395 
Q 2738 -91 2106 -91 
Q 1788 -91 1548 45 
Q 1309 181 1172 441 
z
M 2859 1747 
Q 2859 2416 2648 2756 
Q 2438 3097 2022 3097 
Q 1603 3097 1387 2755 
Q 1172 2413 1172 1747 
Q 1172 1084 1387 740 
Q 1603 397 2022 397 
Q 2438 397 2648 737 
Q 2859 1078 2859 1747 
z
" transform="scale(0.015625)"/>
       <path id="DejaVuSansMono-63" d="M 3316 178 
Q 3084 44 2839 -23 
Q 2594 -91 2338 -91 
Q 1525 -91 1067 396 
Q 609 884 609 1747 
Q 609 2609 1067 3096 
Q 1525 3584 2338 3584 
Q 2591 3584 2831 3518 
Q 3072 3453 3316 3316 
L 3316 2713 
Q 3088 2916 2858 3006 
Q 2628 3097 2338 3097 
Q 1797 3097 1506 2747 
Q 1216 2397 1216 1747 
Q 1216 1100 1508 748 
Q 1800 397 2338 397 
Q 2638 397 2875 489 
Q 3113 581 3316 775 
L 3316 178 
z
" transform="scale(0.015625)"/>
       <path id="DejaVuSansMono-68" d="M 3284 2169 
L 3284 0 
L 2706 0 
L 2706 2169 
Q 2706 2641 2540 2862 
Q 2375 3084 2022 3084 
Q 1619 3084 1401 2798 
Q 1184 2513 1184 1978 
L 1184 0 
L 609 0 
L 609 4863 
L 1184 4863 
L 1184 2975 
Q 1338 3275 1600 3429 
Q 1863 3584 2222 3584 
Q 2756 3584 3020 3232 
Q 3284 2881 3284 2169 
z
" transform="scale(0.015625)"/>
       <path id="DejaVuSansMono-28" d="M 2766 4856 
Q 2350 4144 2145 3436 
Q 1941 2728 1941 2009 
Q 1941 1294 2145 584 
Q 2350 -125 2766 -844 
L 2266 -844 
Q 1794 -100 1562 604 
Q 1331 1309 1331 2009 
Q 1331 2706 1562 3412 
Q 1794 4119 2266 4856 
L 2766 4856 
z
" transform="scale(0.015625)"/>
       <path id="DejaVuSansMono-73" d="M 3041 3378 
L 3041 2816 
Q 2794 2959 2544 3031 
Q 2294 3103 2034 3103 
Q 1644 3103 1451 2976 
Q 1259 2850 1259 2591 
Q 1259 2356 1403 2240 
Q 1547 2125 2119 2016 
L 2350 1972 
Q 2778 1891 2998 1647 
Q 3219 1403 3219 1013 
Q 3219 494 2850 201 
Q 2481 -91 1825 -91 
Q 1566 -91 1281 -36 
Q 997 19 666 128 
L 666 722 
Q 988 556 1281 473 
Q 1575 391 1838 391 
Q 2219 391 2428 545 
Q 2638 700 2638 978 
Q 2638 1378 1872 1531 
L 1847 1538 
L 1631 1581 
Q 1134 1678 906 1908 
Q 678 2138 678 2534 
Q 678 3038 1018 3311 
Q 1359 3584 1991 3584 
Q 2272 3584 2531 3532 
Q 2791 3481 3041 3378 
z
" transform="scale(0.015625)"/>
       <path id="DejaVuSansMono-6d" d="M 2113 3144 
Q 2219 3369 2383 3476 
Q 2547 3584 2778 3584 
Q 3200 3584 3373 3257 
Q 3547 2931 3547 2028 
L 3547 0 
L 3022 0 
L 3022 2003 
Q 3022 2744 2939 2923 
Q 2856 3103 2638 3103 
Q 2388 3103 2295 2911 
Q 2203 2719 2203 2003 
L 2203 0 
L 1678 0 
L 1678 2003 
Q 1678 2753 1589 2928 
Q 1500 3103 1269 3103 
Q 1041 3103 952 2911 
Q 863 2719 863 2003 
L 863 0 
L 341 0 
L 341 3500 
L 863 3500 
L 863 3200 
Q 966 3388 1120 3486 
Q 1275 3584 1472 3584 
Q 1709 3584 1867 3475 
Q 2025 3366 2113 3144 
z
" transform="scale(0.015625)"/>
       <path id="DejaVuSansMono-74" d="M 1919 4494 
L 1919 3500 
L 3225 3500 
L 3225 3053 
L 1919 3053 
L 1919 1153 
Q 1919 766 2066 612 
Q 2213 459 2578 459 
L 3225 459 
L 3225 0 
L 2522 0 
Q 1875 0 1609 259 
Q 1344 519 1344 1153 
L 1344 3053 
L 409 3053 
L 409 3500 
L 1344 3500 
L 1344 4494 
L 1919 4494 
z
" transform="scale(0.015625)"/>
       <path id="DejaVuSansMono-67" d="M 2681 1778 
Q 2681 2425 2470 2761 
Q 2259 3097 1856 3097 
Q 1434 3097 1212 2761 
Q 991 2425 991 1778 
Q 991 1131 1214 792 
Q 1438 453 1863 453 
Q 2259 453 2470 793 
Q 2681 1134 2681 1778 
z
M 3256 225 
Q 3256 -563 2884 -969 
Q 2513 -1375 1791 -1375 
Q 1553 -1375 1293 -1331 
Q 1034 -1288 775 -1203 
L 775 -634 
Q 1081 -778 1331 -847 
Q 1581 -916 1791 -916 
Q 2256 -916 2468 -662 
Q 2681 -409 2681 141 
L 2681 166 
L 2681 556 
Q 2544 263 2306 119 
Q 2069 -25 1728 -25 
Q 1116 -25 750 465 
Q 384 956 384 1778 
Q 384 2603 750 3093 
Q 1116 3584 1728 3584 
Q 2066 3584 2300 3450 
Q 2534 3316 2681 3034 
L 2681 3488 
L 3256 3488 
L 3256 225 
z
" transform="scale(0.015625)"/>
       <path id="DejaVuSansMono-69" d="M 800 3500 
L 2272 3500 
L 2272 447 
L 3413 447 
L 3413 0 
L 556 0 
L 556 447 
L 1697 447 
L 1697 3053 
L 800 3053 
L 800 3500 
z
M 1697 4863 
L 2272 4863 
L 2272 4134 
L 1697 4134 
L 1697 4863 
z
" transform="scale(0.015625)"/>
       <path id="DejaVuSansMono-29" d="M 1088 4856 
L 1588 4856 
Q 2059 4119 2290 3412 
Q 2522 2706 2522 2009 
Q 2522 1306 2290 600 
Q 2059 -106 1588 -844 
L 1088 -844 
Q 1503 -119 1708 590 
Q 1913 1300 1913 2009 
Q 1913 2722 1708 3431 
Q 1503 4141 1088 4856 
z
" transform="scale(0.015625)"/>
      </defs>
      <use xlink:href="#DejaVuSansMono-65"/>
      <use xlink:href="#DejaVuSansMono-70" transform="translate(60.205078 0)"/>
      <use xlink:href="#DejaVuSansMono-6f" transform="translate(120.410156 0)"/>
      <use xlink:href="#DejaVuSansMono-63" transform="translate(180.615234 0)"/>
      <use xlink:href="#DejaVuSansMono-68" transform="translate(240.820312 0)"/>
      <use xlink:href="#DejaVuSansMono-20" transform="translate(301.025391 0)"/>
      <use xlink:href="#DejaVuSansMono-20" transform="translate(361.230469 0)"/>
      <use xlink:href="#DejaVuSansMono-28" transform="translate(421.435547 0)"/>
      <use xlink:href="#DejaVuSansMono-73" transform="translate(481.640625 0)"/>
      <use xlink:href="#DejaVuSansMono-65" transform="translate(541.845703 0)"/>
      <use xlink:href="#DejaVuSansMono-6d" transform="translate(602.050781 0)"/>
      <use xlink:href="#DejaVuSansMono-65" transform="translate(662.255859 0)"/>
      <use xlink:href="#DejaVuSansMono-73" transform="translate(722.460938 0)"/>
      <use xlink:href="#DejaVuSansMono-74" transform="translate(782.666016 0)"/>
      <use xlink:href="#DejaVuSansMono-65" transform="translate(842.871094 0)"/>
      <use xlink:href="#DejaVuSansMono-72" transform="translate(903.076172 0)"/>
      <use xlink:href="#DejaVuSansMono-20" transform="translate(963.28125 0)"/>
      <use xlink:href="#DejaVuSansMono-70" transform="translate(1023.486328 0)"/>
      <use xlink:href="#DejaVuSansMono-72" transform="translate(1083.691406 0)"/>
      <use xlink:href="#DejaVuSansMono-6f" transform="translate(1143.896484 0)"/>
      <use xlink:href="#DejaVuSansMono-67" transform="translate(1204.101562 0)"/>
      <use xlink:href="#DejaVuSansMono-72" transform="translate(1264.306641 0)"/>
      <use xlink:href="#DejaVuSansMono-65" transform="translate(1324.511719 0)"/>
      <use xlink:href="#DejaVuSansMono-73" transform="translate(1384.716797 0)"/>
      <use xlink:href="#DejaVuSansMono-73" transform="translate(1444.921875 0)"/>
      <use xlink:href="#DejaVuSansMono-69" transform="translate(1505.126953 0)"/>
      <use xlink:href="#DejaVuSansMono-6f" transform="translate(1565.332031 0)"/>
      <use xlink:href="#DejaVuSansMono-6e" transform="translate(1625.537109 0)"/>
      <use xlink:href="#DejaVuSansMono-29" transform="translate(1685.742188 0)"/>
     </g>
    </g>
   </g>
   <g id="matplotlib.axis_2">
    <g id="ytick_1">
     <g id="line2d_14">
      <defs>
       <path id="m2a03d63ad2" d="M 0 0 
L -3 0 
" style="stroke: #7c8496; stroke-width: 0.8"/>
      </defs>
      <g>
       <use xlink:href="#m2a03d63ad2" x="53.25" y="236.360714" style="fill: #7c8496; stroke: #7c8496; stroke-width: 0.8"/>
      </g>
     </g>
     <g id="text_6">
      <!-- 0.2 -->
      <g style="fill: #7c8496" transform="translate(31.398203 239.612628) scale(0.085 -0.085)">
       <defs>
        <path id="DejaVuSansMono-30" d="M 1509 2344 
Q 1509 2516 1629 2641 
Q 1750 2766 1919 2766 
Q 2094 2766 2219 2641 
Q 2344 2516 2344 2344 
Q 2344 2169 2220 2047 
Q 2097 1925 1919 1925 
Q 1744 1925 1626 2044 
Q 1509 2163 1509 2344 
z
M 1925 4250 
Q 1484 4250 1267 3775 
Q 1050 3300 1050 2328 
Q 1050 1359 1267 884 
Q 1484 409 1925 409 
Q 2369 409 2586 884 
Q 2803 1359 2803 2328 
Q 2803 3300 2586 3775 
Q 2369 4250 1925 4250 
z
M 1925 4750 
Q 2672 4750 3055 4137 
Q 3438 3525 3438 2328 
Q 3438 1134 3055 521 
Q 2672 -91 1925 -91 
Q 1178 -91 797 521 
Q 416 1134 416 2328 
Q 416 3525 797 4137 
Q 1178 4750 1925 4750 
z
" transform="scale(0.015625)"/>
        <path id="DejaVuSansMono-2e" d="M 1528 953 
L 2316 953 
L 2316 0 
L 1528 0 
L 1528 953 
z
" transform="scale(0.015625)"/>
       </defs>
       <use xlink:href="#DejaVuSansMono-30"/>
       <use xlink:href="#DejaVuSansMono-2e" transform="translate(60.205078 0)"/>
       <use xlink:href="#DejaVuSansMono-32" transform="translate(120.410156 0)"/>
      </g>
     </g>
    </g>
    <g id="ytick_2">
     <g id="line2d_15">
      <g>
       <use xlink:href="#m2a03d63ad2" x="53.25" y="188.021429" style="fill: #7c8496; stroke: #7c8496; stroke-width: 0.8"/>
      </g>
     </g>
     <g id="text_7">
      <!-- 0.4 -->
      <g style="fill: #7c8496" transform="translate(31.398203 191.273343) scale(0.085 -0.085)">
       <defs>
        <path id="DejaVuSansMono-34" d="M 2297 4091 
L 825 1625 
L 2297 1625 
L 2297 4091 
z
M 2194 4666 
L 2925 4666 
L 2925 1625 
L 3547 1625 
L 3547 1113 
L 2925 1113 
L 2925 0 
L 2297 0 
L 2297 1113 
L 319 1113 
L 319 1709 
L 2194 4666 
z
" transform="scale(0.015625)"/>
       </defs>
       <use xlink:href="#DejaVuSansMono-30"/>
       <use xlink:href="#DejaVuSansMono-2e" transform="translate(60.205078 0)"/>
       <use xlink:href="#DejaVuSansMono-34" transform="translate(120.410156 0)"/>
      </g>
     </g>
    </g>
    <g id="ytick_3">
     <g id="line2d_16">
      <g>
       <use xlink:href="#m2a03d63ad2" x="53.25" y="139.682143" style="fill: #7c8496; stroke: #7c8496; stroke-width: 0.8"/>
      </g>
     </g>
     <g id="text_8">
      <!-- 0.6 -->
      <g style="fill: #7c8496" transform="translate(31.398203 142.934057) scale(0.085 -0.085)">
       <defs>
        <path id="DejaVuSansMono-36" d="M 3097 4563 
L 3097 3981 
Q 2900 4097 2678 4158 
Q 2456 4219 2216 4219 
Q 1616 4219 1306 3767 
Q 997 3316 997 2438 
Q 1147 2750 1412 2917 
Q 1678 3084 2022 3084 
Q 2697 3084 3067 2670 
Q 3438 2256 3438 1497 
Q 3438 741 3056 325 
Q 2675 -91 1984 -91 
Q 1172 -91 794 492 
Q 416 1075 416 2328 
Q 416 3509 870 4129 
Q 1325 4750 2188 4750 
Q 2419 4750 2650 4701 
Q 2881 4653 3097 4563 
z
M 1972 2591 
Q 1569 2591 1337 2300 
Q 1106 2009 1106 1497 
Q 1106 984 1337 693 
Q 1569 403 1972 403 
Q 2391 403 2603 679 
Q 2816 956 2816 1497 
Q 2816 2041 2603 2316 
Q 2391 2591 1972 2591 
z
" transform="scale(0.015625)"/>
       </defs>
       <use xlink:href="#DejaVuSansMono-30"/>
       <use xlink:href="#DejaVuSansMono-2e" transform="translate(60.205078 0)"/>
       <use xlink:href="#DejaVuSansMono-36" transform="translate(120.410156 0)"/>
      </g>
     </g>
    </g>
    <g id="ytick_4">
     <g id="line2d_17">
      <g>
       <use xlink:href="#m2a03d63ad2" x="53.25" y="91.342857" style="fill: #7c8496; stroke: #7c8496; stroke-width: 0.8"/>
      </g>
     </g>
     <g id="text_9">
      <!-- 0.8 -->
      <g style="fill: #7c8496" transform="translate(31.398203 94.594771) scale(0.085 -0.085)">
       <defs>
        <path id="DejaVuSansMono-38" d="M 1925 2216 
Q 1503 2216 1273 1980 
Q 1044 1744 1044 1313 
Q 1044 881 1276 642 
Q 1509 403 1925 403 
Q 2350 403 2579 639 
Q 2809 875 2809 1313 
Q 2809 1741 2576 1978 
Q 2344 2216 1925 2216 
z
M 1375 2478 
Q 972 2581 745 2862 
Q 519 3144 519 3541 
Q 519 4097 897 4423 
Q 1275 4750 1925 4750 
Q 2578 4750 2956 4423 
Q 3334 4097 3334 3541 
Q 3334 3144 3107 2862 
Q 2881 2581 2478 2478 
Q 2947 2375 3195 2062 
Q 3444 1750 3444 1253 
Q 3444 622 3041 265 
Q 2638 -91 1925 -91 
Q 1213 -91 811 264 
Q 409 619 409 1247 
Q 409 1747 657 2061 
Q 906 2375 1375 2478 
z
M 1147 3481 
Q 1147 3106 1347 2909 
Q 1547 2713 1925 2713 
Q 2306 2713 2506 2909 
Q 2706 3106 2706 3481 
Q 2706 3863 2507 4063 
Q 2309 4263 1925 4263 
Q 1547 4263 1347 4061 
Q 1147 3859 1147 3481 
z
" transform="scale(0.015625)"/>
       </defs>
       <use xlink:href="#DejaVuSansMono-30"/>
       <use xlink:href="#DejaVuSansMono-2e" transform="translate(60.205078 0)"/>
       <use xlink:href="#DejaVuSansMono-38" transform="translate(120.410156 0)"/>
      </g>
     </g>
    </g>
    <g id="ytick_5">
     <g id="line2d_18">
      <g>
       <use xlink:href="#m2a03d63ad2" x="53.25" y="43.003571" style="fill: #7c8496; stroke: #7c8496; stroke-width: 0.8"/>
      </g>
     </g>
     <g id="text_10">
      <!-- 1.0 -->
      <g style="fill: #7c8496" transform="translate(31.398203 46.255485) scale(0.085 -0.085)">
       <use xlink:href="#DejaVuSansMono-31"/>
       <use xlink:href="#DejaVuSansMono-2e" transform="translate(60.205078 0)"/>
       <use xlink:href="#DejaVuSansMono-30" transform="translate(120.410156 0)"/>
      </g>
     </g>
    </g>
    <g id="text_11">
     <!-- loss -->
     <g style="fill: #7c8496" transform="translate(21.4225 160.788594) rotate(-90) scale(0.095 -0.095)">
      <defs>
       <path id="DejaVuSansMono-6c" d="M 1997 1269 
Q 1997 881 2139 684 
Q 2281 488 2559 488 
L 3231 488 
L 3231 0 
L 2503 0 
Q 1988 0 1705 331 
Q 1422 663 1422 1269 
L 1422 4447 
L 500 4447 
L 500 4897 
L 1997 4897 
L 1997 1269 
z
" transform="scale(0.015625)"/>
      </defs>
      <use xlink:href="#DejaVuSansMono-6c"/>
      <use xlink:href="#DejaVuSansMono-6f" transform="translate(60.205078 0)"/>
      <use xlink:href="#DejaVuSansMono-73" transform="translate(120.410156 0)"/>
      <use xlink:href="#DejaVuSansMono-73" transform="translate(180.615234 0)"/>
     </g>
    </g>
   </g>
   <g id="patch_3">
    <path d="M 53.25 284.7 
L 53.25 14 
" style="fill: none; stroke: #232a38; stroke-linejoin: miter; stroke-linecap: square"/>
   </g>
   <g id="patch_4">
    <path d="M 53.25 284.7 
L 793.900761 284.7 
" style="fill: none; stroke: #232a38; stroke-linejoin: miter; stroke-linecap: square"/>
   </g>
   <g id="line2d_19">
    <path d="M 590.879741 257.694563 
L 593.578975 257.75698 
L 596.27821 257.818024 
L 598.977445 257.877724 
L 601.67668 257.93611 
L 604.375915 257.993211 
L 607.07515 258.049055 
L 609.774384 258.10367 
L 612.473619 258.157082 
L 615.172854 258.20932 
L 617.872089 258.260407 
L 620.571324 258.31037 
L 623.270559 258.359233 
L 625.969794 258.407021 
L 628.669028 258.453756 
L 631.368263 258.499464 
L 634.067498 258.544165 
L 636.766733 258.587882 
L 639.465968 258.630637 
L 642.165203 258.672451 
L 644.864437 258.713344 
L 647.563672 258.753338 
L 650.262907 258.792451 
L 652.962142 258.830703 
L 655.661377 258.868114 
L 658.360612 258.904701 
L 661.059847 258.940482 
L 663.759081 258.975476 
L 666.458316 259.0097 
L 669.157551 259.043171 
L 671.856786 259.075904 
L 674.556021 259.107918 
L 677.255256 259.139226 
L 679.95449 259.169846 
L 682.653725 259.199792 
L 685.35296 259.229078 
L 688.052195 259.25772 
L 690.75143 259.285731 
L 693.450665 259.313126 
L 696.1499 259.339918 
" clip-path="url(#p9c9e0b036c)" style="fill: none; stroke-dasharray: 4.8,4.8; stroke-dashoffset: 0; stroke: #ff8a5b; stroke-opacity: 0.55; stroke-width: 1.6"/>
   </g>
   <g id="line2d_20">
    <path d="M 590.879741 241.451091 
L 593.578975 241.540581 
L 596.27821 241.628321 
L 598.977445 241.714345 
L 601.67668 241.798688 
L 604.375915 241.881382 
L 607.07515 241.96246 
L 609.774384 242.041952 
L 612.473619 242.11989 
L 615.172854 242.196305 
L 617.872089 242.271226 
L 620.571324 242.344682 
L 623.270559 242.416702 
L 625.969794 242.487313 
L 628.669028 242.556545 
L 631.368263 242.624423 
L 634.067498 242.690974 
L 636.766733 242.756224 
L 639.465968 242.820198 
L 642.165203 242.882922 
L 644.864437 242.944419 
L 647.563672 243.004714 
L 650.262907 243.06383 
L 652.962142 243.121791 
L 655.661377 243.178618 
L 658.360612 243.234335 
L 661.059847 243.288962 
L 663.759081 243.342521 
L 666.458316 243.395033 
L 669.157551 243.446519 
L 671.856786 243.496998 
L 674.556021 243.54649 
L 677.255256 243.595015 
L 679.95449 243.642591 
L 682.653725 243.689237 
L 685.35296 243.73497 
L 688.052195 243.77981 
L 690.75143 243.823773 
L 693.450665 243.866877 
L 696.1499 243.909138 
" clip-path="url(#p9c9e0b036c)" style="fill: none; stroke-dasharray: 4.8,4.8; stroke-dashoffset: 0; stroke: #5eead4; stroke-opacity: 0.55; stroke-width: 1.6"/>
   </g>
   <g id="text_12">
    <!-- target: placements -->
    <g style="fill: #7c8496" transform="translate(707.428845 237.78426) scale(0.095 -0.095)">
     <defs>
      <path id="DejaVuSansMono-61" d="M 2194 1759 
L 2003 1759 
Q 1500 1759 1245 1582 
Q 991 1406 991 1056 
Q 991 741 1181 566 
Q 1372 391 1709 391 
Q 2184 391 2456 720 
Q 2728 1050 2731 1631 
L 2731 1759 
L 2194 1759 
z
M 3309 1997 
L 3309 0 
L 2731 0 
L 2731 519 
Q 2547 206 2267 57 
Q 1988 -91 1588 -91 
Q 1053 -91 734 211 
Q 416 513 416 1019 
Q 416 1603 808 1906 
Q 1200 2209 1959 2209 
L 2731 2209 
L 2731 2300 
Q 2728 2719 2518 2908 
Q 2309 3097 1850 3097 
Q 1556 3097 1256 3012 
Q 956 2928 672 2766 
L 672 3341 
Q 991 3463 1283 3523 
Q 1575 3584 1850 3584 
Q 2284 3584 2592 3456 
Q 2900 3328 3091 3072 
Q 3209 2916 3259 2686 
Q 3309 2456 3309 1997 
z
" transform="scale(0.015625)"/>
      <path id="DejaVuSansMono-3a" d="M 1528 3322 
L 2316 3322 
L 2316 2375 
L 1528 2375 
L 1528 3322 
z
M 1528 953 
L 2316 953 
L 2316 0 
L 1528 0 
L 1528 953 
z
" transform="scale(0.015625)"/>
     </defs>
     <use xlink:href="#DejaVuSansMono-74"/>
     <use xlink:href="#DejaVuSansMono-61" transform="translate(60.205078 0)"/>
     <use xlink:href="#DejaVuSansMono-72" transform="translate(120.410156 0)"/>
     <use xlink:href="#DejaVuSansMono-67" transform="translate(180.615234 0)"/>
     <use xlink:href="#DejaVuSansMono-65" transform="translate(240.820312 0)"/>
     <use xlink:href="#DejaVuSansMono-74" transform="translate(301.025391 0)"/>
     <use xlink:href="#DejaVuSansMono-3a" transform="translate(361.230469 0)"/>
     <use xlink:href="#DejaVuSansMono-20" transform="translate(421.435547 0)"/>
     <use xlink:href="#DejaVuSansMono-70" transform="translate(481.640625 0)"/>
     <use xlink:href="#DejaVuSansMono-6c" transform="translate(541.845703 0)"/>
     <use xlink:href="#DejaVuSansMono-61" transform="translate(602.050781 0)"/>
     <use xlink:href="#DejaVuSansMono-63" transform="translate(662.255859 0)"/>
     <use xlink:href="#DejaVuSansMono-65" transform="translate(722.460938 0)"/>
     <use xlink:href="#DejaVuSansMono-6d" transform="translate(782.666016 0)"/>
     <use xlink:href="#DejaVuSansMono-65" transform="translate(842.871094 0)"/>
     <use xlink:href="#DejaVuSansMono-6e" transform="translate(903.076172 0)"/>
     <use xlink:href="#DejaVuSansMono-74" transform="translate(963.28125 0)"/>
     <use xlink:href="#DejaVuSansMono-73" transform="translate(1023.486328 0)"/>
    </g>
   </g>
   <g id="text_13">
    <!-- train_loss -->
    <g style="fill: #ff8a5b" transform="translate(594.639389 287.940438) scale(0.105 -0.105)">
     <defs>
      <path id="DejaVuSansMono-5f" d="M 3853 -1259 
L 3853 -1509 
L 0 -1509 
L 0 -1259 
L 3853 -1259 
z
" transform="scale(0.015625)"/>
     </defs>
     <use xlink:href="#DejaVuSansMono-74"/>
     <use xlink:href="#DejaVuSansMono-72" transform="translate(60.205078 0)"/>
     <use xlink:href="#DejaVuSansMono-61" transform="translate(120.410156 0)"/>
     <use xlink:href="#DejaVuSansMono-69" transform="translate(180.615234 0)"/>
     <use xlink:href="#DejaVuSansMono-6e" transform="translate(240.820312 0)"/>
     <use xlink:href="#DejaVuSansMono-5f" transform="translate(301.025391 0)"/>
     <use xlink:href="#DejaVuSansMono-6c" transform="translate(361.230469 0)"/>
     <use xlink:href="#DejaVuSansMono-6f" transform="translate(421.435547 0)"/>
     <use xlink:href="#DejaVuSansMono-73" transform="translate(481.640625 0)"/>
     <use xlink:href="#DejaVuSansMono-73" transform="translate(541.845703 0)"/>
    </g>
   </g>
   <g id="text_14">
    <!-- val_loss -->
    <g style="fill: #5eead4" transform="translate(594.639389 211.551804) scale(0.105 -0.105)">
     <defs>
      <path id="DejaVuSansMono-76" d="M 313 3500 
L 909 3500 
L 1925 563 
L 2944 3500 
L 3541 3500 
L 2297 0 
L 1556 0 
L 313 3500 
z
" transform="scale(0.015625)"/>
     </defs>
     <use xlink:href="#DejaVuSansMono-76"/>
     <use xlink:href="#DejaVuSansMono-61" transform="translate(60.205078 0)"/>
     <use xlink:href="#DejaVuSansMono-6c" transform="translate(120.410156 0)"/>
     <use xlink:href="#DejaVuSansMono-5f" transform="translate(180.615234 0)"/>
     <use xlink:href="#DejaVuSansMono-6c" transform="translate(240.820312 0)"/>
     <use xlink:href="#DejaVuSansMono-6f" transform="translate(301.025391 0)"/>
     <use xlink:href="#DejaVuSansMono-73" transform="translate(361.230469 0)"/>
     <use xlink:href="#DejaVuSansMono-73" transform="translate(421.435547 0)"/>
    </g>
   </g>
   <g id="line2d_21">
    <path d="M 64.528946 41.968812 
L 65.848121 44.812391 
L 68.48647 49.44208 
L 69.805645 53.861029 
L 71.12482 55.192034 
L 72.443995 57.067912 
L 73.76317 59.914475 
L 76.40152 63.555884 
L 77.720695 65.85157 
L 79.03987 67.02259 
L 80.359045 70.646153 
L 81.67822 72.73999 
L 84.316569 76.060904 
L 85.635744 79.322686 
L 86.954919 80.1117 
L 88.274094 81.820886 
L 89.593269 83.093113 
L 90.912444 84.090593 
L 92.231619 86.088972 
L 93.550794 89.033853 
L 94.869969 90.1894 
L 96.189144 94.469916 
L 97.508319 95.726206 
L 98.827494 97.537404 
L 100.146669 101.033553 
L 101.465843 102.093183 
L 102.785018 103.953134 
L 104.104193 105.08514 
L 105.423368 106.644043 
L 106.742543 109.387472 
L 108.061718 111.538577 
L 109.380893 111.811993 
L 110.700068 113.006623 
L 112.019243 113.793378 
L 113.338418 115.194406 
L 114.657593 115.596792 
L 115.976768 116.388747 
L 117.295943 117.647915 
L 119.934292 124.866214 
L 121.253467 125.913642 
L 122.572642 126.513421 
L 123.891817 127.692321 
L 125.210992 129.813846 
L 126.530167 129.584448 
L 129.168517 129.999051 
L 130.487692 131.4612 
L 131.806867 134.30644 
L 133.126042 136.017518 
L 134.445217 137.919989 
L 135.764392 140.118773 
L 137.083566 141.633074 
L 138.402741 142.248371 
L 139.721916 143.914339 
L 141.041091 146.282807 
L 142.360266 147.404602 
L 143.679441 146.695175 
L 146.317791 150.176689 
L 147.636966 152.858934 
L 148.956141 154.468245 
L 150.275316 154.643112 
L 151.594491 156.47499 
L 152.913666 157.748339 
L 154.23284 158.821149 
L 155.552015 159.32374 
L 158.190365 158.311145 
L 159.50954 159.343895 
L 160.828715 159.479554 
L 162.14789 161.017235 
L 163.467065 162.013642 
L 164.78624 164.227035 
L 167.42459 167.140469 
L 168.743765 167.757425 
L 170.06294 169.534245 
L 171.382114 171.098629 
L 172.701289 172.320999 
L 174.020464 172.366744 
L 176.658814 173.470671 
L 177.977989 174.246412 
L 179.297164 174.254827 
L 180.616339 174.625928 
L 181.935514 175.169949 
L 183.254689 175.924506 
L 184.573864 178.033335 
L 185.893039 179.893269 
L 187.212214 179.769855 
L 188.531389 180.42654 
L 189.850563 181.906188 
L 191.169738 183.029218 
L 192.488913 184.347753 
L 193.808088 184.515722 
L 195.127263 185.048104 
L 196.446438 188.151264 
L 199.084788 190.107862 
L 200.403963 189.703788 
L 201.723138 189.836576 
L 203.042313 189.760919 
L 204.361488 191.040029 
L 205.680663 191.065014 
L 206.999837 191.915814 
L 208.319012 191.632529 
L 209.638187 192.886603 
L 212.276537 196.119492 
L 213.595712 196.516912 
L 214.914887 197.293041 
L 216.234062 198.56317 
L 217.553237 198.806948 
L 218.872412 200.067615 
L 224.149111 201.851571 
L 225.468286 201.594257 
L 226.787461 203.000945 
L 228.106636 203.150704 
L 229.425811 202.636512 
L 230.744986 203.460401 
L 232.064161 204.522669 
L 233.383336 205.29191 
L 234.702511 206.686083 
L 236.021686 207.4379 
L 237.340861 208.905195 
L 238.660036 211.209341 
L 239.979211 211.890739 
L 241.298386 212.891821 
L 242.61756 214.427681 
L 243.936735 214.413796 
L 245.25591 215.522129 
L 246.575085 215.074079 
L 247.89426 214.789676 
L 249.213435 216.060626 
L 250.53261 216.516067 
L 251.851785 216.130623 
L 253.17096 217.034758 
L 254.490135 217.601384 
L 257.128485 219.686673 
L 258.44766 219.461179 
L 259.766834 220.278704 
L 261.086009 220.549626 
L 262.405184 220.411726 
L 265.043534 218.896801 
L 266.362709 219.359785 
L 267.681884 219.342805 
L 269.001059 217.919079 
L 270.320234 217.625153 
L 271.639409 219.067366 
L 272.958584 219.916673 
L 275.596934 220.628854 
L 278.235283 221.684109 
L 279.554458 223.13048 
L 280.873633 222.590225 
L 282.192808 223.907045 
L 283.511983 225.958915 
L 284.831158 225.922984 
L 286.150333 226.482139 
L 287.469508 227.608468 
L 288.788683 226.956941 
L 290.107858 228.273993 
L 291.427033 228.056354 
L 292.746208 227.316623 
L 294.065382 226.818732 
L 295.384557 228.116101 
L 296.703732 227.996869 
L 298.022907 229.234142 
L 299.342082 228.753427 
L 301.980432 228.999754 
L 304.618782 230.265472 
L 305.937957 231.855301 
L 307.257132 231.425056 
L 308.576307 232.143153 
L 309.895482 231.937359 
L 312.533831 233.68223 
L 313.853006 232.16185 
L 315.172181 232.113475 
L 316.491356 234.141554 
L 317.810531 232.993066 
L 319.129706 235.179393 
L 320.448881 235.242177 
L 321.768056 234.478382 
L 324.406406 236.165423 
L 325.725581 234.534959 
L 327.044756 236.986655 
L 328.363931 236.904342 
L 329.683105 237.791886 
L 331.00228 238.149669 
L 332.321455 238.31603 
L 333.64063 237.024547 
L 334.959805 238.186965 
L 336.27898 237.651138 
L 338.91733 237.992946 
L 340.236505 238.359335 
L 341.55568 238.974513 
L 342.874855 239.422599 
L 344.19403 239.740262 
L 345.513205 240.235956 
L 346.832379 239.73687 
L 349.470729 240.118006 
L 350.789904 240.045399 
L 352.109079 239.481383 
L 354.747429 239.471623 
L 356.066604 240.3574 
L 358.704954 240.588932 
L 360.024129 241.367922 
L 361.343304 242.686261 
L 362.662479 242.306864 
L 363.981653 242.445903 
L 365.300828 242.321328 
L 366.620003 241.927771 
L 367.939178 242.486793 
L 370.577528 241.404901 
L 371.896703 241.328347 
L 373.215878 241.651899 
L 374.535053 241.840429 
L 375.854228 242.451134 
L 377.173403 242.774606 
L 378.492578 244.380538 
L 379.811753 244.49268 
L 381.130928 245.367312 
L 382.450102 244.866815 
L 383.769277 245.440315 
L 385.088452 244.985623 
L 386.407627 245.436105 
L 387.726802 244.487838 
L 389.045977 246.315274 
L 390.365152 246.593095 
L 391.684327 247.353857 
L 393.003502 246.898627 
L 394.322677 247.583545 
L 395.641852 247.33556 
L 398.280202 246.387403 
L 399.599376 247.052821 
L 400.918551 247.070395 
L 404.876076 246.031292 
L 406.195251 247.877177 
L 407.514426 247.492533 
L 408.833601 246.105016 
L 410.152776 246.191885 
L 414.110301 248.707209 
L 415.429476 247.344543 
L 416.74865 247.717312 
L 418.067825 247.888124 
L 419.387 247.744117 
L 420.706175 247.999457 
L 422.02535 247.940621 
L 423.344525 247.169568 
L 424.6637 248.042193 
L 425.982875 248.419543 
L 427.30205 250.83747 
L 428.621225 250.704636 
L 429.9404 250.736946 
L 432.57875 254.342865 
L 433.897924 254.241294 
L 435.217099 253.615844 
L 436.536274 252.349242 
L 439.174624 253.154669 
L 440.493799 252.776455 
L 441.812974 251.232687 
L 443.132149 250.893118 
L 444.451324 251.488564 
L 445.770499 250.738992 
L 447.089674 251.724873 
L 448.408849 251.401884 
L 449.728024 250.029638 
L 451.047199 249.536159 
L 452.366373 249.933971 
L 453.685548 248.967306 
L 455.004723 250.233682 
L 456.323898 249.531629 
L 457.643073 249.471504 
L 458.962248 251.188537 
L 460.281423 252.261442 
L 461.600598 251.777023 
L 462.919773 253.00208 
L 464.238948 252.75952 
L 465.558123 252.185912 
L 466.877298 252.940802 
L 468.196473 252.969742 
L 469.515647 253.620926 
L 470.834822 255.027793 
L 472.153997 254.181466 
L 473.473172 254.02686 
L 474.792347 255.510381 
L 476.111522 255.195478 
L 477.430697 252.565585 
L 478.749872 252.616449 
L 480.069047 252.423676 
L 481.388222 253.14777 
L 482.707397 253.019235 
L 484.026572 252.41927 
L 485.345747 252.676124 
L 486.664921 255.247972 
L 487.984096 254.57074 
L 489.303271 254.202481 
L 490.622446 255.482656 
L 494.579971 254.60059 
L 495.899146 254.109774 
L 497.218321 254.403561 
L 498.537496 254.863271 
L 499.856671 254.746786 
L 501.175846 255.339102 
L 502.495021 256.77965 
L 503.814195 256.450639 
L 505.13337 257.247496 
L 506.452545 257.515222 
L 507.77172 257.234086 
L 509.090895 255.349065 
L 510.41007 256.271247 
L 511.729245 256.315808 
L 513.04842 257.01917 
L 514.367595 256.880141 
L 515.68677 257.242675 
L 517.005945 256.95387 
L 518.32512 257.638407 
L 519.644295 256.001263 
L 520.96347 255.634912 
L 523.601819 251.771711 
L 524.920994 251.585089 
L 526.240169 253.323596 
L 527.559344 253.907315 
L 530.197694 255.967687 
L 531.516869 257.612263 
L 532.836044 259.018648 
L 534.155219 259.429988 
L 535.474394 257.665379 
L 536.793569 257.037338 
L 538.112744 257.432483 
L 539.431918 255.908267 
L 542.070268 256.818862 
L 543.389443 256.32701 
L 544.708618 256.436537 
L 547.346968 258.574399 
L 548.666143 258.396879 
L 549.985318 259.025643 
L 551.304493 258.503921 
L 552.623668 257.49017 
L 555.262018 258.298942 
L 557.900367 257.549742 
L 559.219542 256.608272 
L 560.538717 256.388474 
L 561.857892 256.957845 
L 563.177067 257.016813 
L 564.496242 256.507727 
L 565.815417 256.226512 
L 567.134592 258.907474 
L 568.453767 259.877698 
L 569.772942 260.293311 
L 571.092117 261.014449 
L 572.411292 260.769294 
L 573.730467 260.691956 
L 575.049641 260.039471 
L 576.368816 257.669013 
L 577.687991 257.310206 
L 579.007166 257.479627 
L 580.326341 258.403425 
L 581.645516 258.083049 
L 584.283866 257.840903 
L 585.603041 257.404256 
L 586.922216 256.215295 
L 588.241391 256.068521 
L 589.560566 255.100983 
L 590.879741 255.736655 
L 590.879741 255.736655 
" clip-path="url(#p9c9e0b036c)" id="train-curve" class="draw-train" style="fill: none; stroke: #ff8a5b; stroke-width: 2.1; stroke-linecap: round; stroke-dasharray:677.9; stroke-dashoffset:677.9;"/>
   </g>
   <g id="line2d_22">
    <path d="M 64.528946 31.123931 
L 65.848121 33.084052 
L 67.167295 36.35912 
L 68.48647 37.369427 
L 69.805645 39.86538 
L 71.12482 41.932159 
L 72.443995 43.131948 
L 73.76317 44.656287 
L 75.082345 45.695714 
L 76.40152 47.009154 
L 77.720695 51.081346 
L 79.03987 52.521975 
L 81.67822 56.056595 
L 82.997395 59.099472 
L 84.316569 61.530005 
L 85.635744 64.784475 
L 86.954919 65.897019 
L 88.274094 68.601487 
L 90.912444 72.755529 
L 92.231619 74.839699 
L 93.550794 77.16614 
L 94.869969 77.854433 
L 97.508319 80.119807 
L 98.827494 82.253342 
L 100.146669 83.846136 
L 101.465843 83.897941 
L 102.785018 85.288441 
L 104.104193 85.336035 
L 105.423368 86.508069 
L 106.742543 88.1337 
L 109.380893 89.623335 
L 110.700068 91.565959 
L 112.019243 93.259744 
L 113.338418 95.441877 
L 114.657593 96.655064 
L 115.976768 95.816815 
L 117.295943 98.298181 
L 118.615118 99.561603 
L 119.934292 101.468794 
L 121.253467 101.94712 
L 122.572642 102.654076 
L 123.891817 103.79655 
L 125.210992 108.915042 
L 126.530167 110.066278 
L 127.849342 112.535393 
L 129.168517 113.639104 
L 130.487692 116.072566 
L 131.806867 118.16746 
L 133.126042 119.717601 
L 134.445217 117.400574 
L 135.764392 120.327679 
L 137.083566 121.039633 
L 138.402741 121.935555 
L 139.721916 122.585424 
L 141.041091 123.552468 
L 142.360266 126.278864 
L 143.679441 129.608664 
L 144.998616 128.07069 
L 146.317791 128.164348 
L 147.636966 129.463591 
L 148.956141 131.22709 
L 150.275316 132.006147 
L 151.594491 132.263603 
L 152.913666 132.225723 
L 154.23284 133.768718 
L 155.552015 136.129965 
L 156.87119 137.120028 
L 158.190365 138.432025 
L 159.50954 138.923011 
L 160.828715 138.873729 
L 162.14789 141.204669 
L 163.467065 141.986167 
L 164.78624 143.268582 
L 166.105415 143.591488 
L 167.42459 142.991417 
L 168.743765 144.762334 
L 170.06294 145.868517 
L 171.382114 146.255344 
L 172.701289 148.009027 
L 174.020464 148.624386 
L 176.658814 152.323672 
L 177.977989 152.941195 
L 179.297164 155.065052 
L 180.616339 155.048939 
L 181.935514 154.668611 
L 183.254689 155.488441 
L 184.573864 157.332325 
L 187.212214 157.497816 
L 188.531389 157.996652 
L 189.850563 160.388743 
L 191.169738 161.787598 
L 192.488913 161.070782 
L 193.808088 162.222124 
L 195.127263 163.211329 
L 196.446438 165.109112 
L 197.765613 166.422134 
L 199.084788 165.845917 
L 200.403963 167.807167 
L 201.723138 169.504354 
L 203.042313 167.838734 
L 204.361488 168.817531 
L 205.680663 169.98773 
L 206.999837 171.424977 
L 208.319012 173.50579 
L 209.638187 174.639379 
L 210.957362 174.364484 
L 212.276537 176.259357 
L 213.595712 177.888488 
L 214.914887 178.903219 
L 216.234062 179.049914 
L 217.553237 179.012218 
L 218.872412 179.262336 
L 220.191587 179.872065 
L 221.510762 180.911841 
L 222.829937 181.367586 
L 224.149111 180.796579 
L 225.468286 179.526675 
L 226.787461 178.902359 
L 228.106636 178.929021 
L 229.425811 180.632691 
L 230.744986 180.569904 
L 232.064161 180.185335 
L 233.383336 180.831407 
L 236.021686 185.808868 
L 237.340861 185.894106 
L 238.660036 187.570737 
L 239.979211 187.22658 
L 241.298386 188.171179 
L 242.61756 189.71176 
L 245.25591 189.784782 
L 246.575085 190.568647 
L 247.89426 189.49658 
L 249.213435 192.169536 
L 250.53261 194.153538 
L 251.851785 193.647212 
L 253.17096 194.062361 
L 255.80931 194.150168 
L 257.128485 195.516006 
L 258.44766 194.316267 
L 259.766834 194.076046 
L 261.086009 194.779214 
L 262.405184 195.766132 
L 263.724359 197.234231 
L 265.043534 197.58556 
L 266.362709 197.492299 
L 267.681884 200.046872 
L 269.001059 200.688243 
L 270.320234 200.978282 
L 271.639409 199.992741 
L 272.958584 200.094404 
L 274.277759 201.151259 
L 275.596934 203.102529 
L 276.916108 200.16124 
L 278.235283 199.384931 
L 279.554458 199.359861 
L 280.873633 200.101525 
L 282.192808 199.311169 
L 283.511983 199.129984 
L 284.831158 198.72731 
L 286.150333 200.481717 
L 287.469508 201.190869 
L 288.788683 201.289966 
L 291.427033 204.265862 
L 292.746208 204.618445 
L 294.065382 203.780913 
L 295.384557 204.621198 
L 296.703732 205.604249 
L 298.022907 207.057532 
L 299.342082 207.251648 
L 300.661257 205.770422 
L 301.980432 205.957206 
L 303.299607 206.332463 
L 305.937957 206.811077 
L 307.257132 206.182816 
L 308.576307 204.897925 
L 309.895482 206.243307 
L 311.214657 207.287655 
L 312.533831 207.766975 
L 313.853006 208.614628 
L 315.172181 207.945644 
L 316.491356 209.707661 
L 317.810531 212.028219 
L 319.129706 212.363946 
L 320.448881 212.409657 
L 321.768056 212.101989 
L 323.087231 212.347557 
L 324.406406 213.222181 
L 325.725581 213.856251 
L 327.044756 214.844801 
L 328.363931 216.930605 
L 329.683105 217.135394 
L 331.00228 219.77273 
L 333.64063 218.226927 
L 334.959805 217.86633 
L 336.27898 215.472376 
L 337.598155 214.230061 
L 338.91733 214.007601 
L 340.236505 213.562855 
L 341.55568 213.965113 
L 342.874855 216.034345 
L 344.19403 215.614225 
L 345.513205 217.489911 
L 348.151554 218.66285 
L 349.470729 218.619673 
L 350.789904 219.661749 
L 352.109079 218.646864 
L 353.428254 218.761799 
L 354.747429 219.71469 
L 356.066604 219.438178 
L 357.385779 219.653211 
L 358.704954 220.597946 
L 360.024129 220.488581 
L 361.343304 222.285211 
L 362.662479 222.037607 
L 363.981653 221.399397 
L 365.300828 222.114755 
L 367.939178 221.70787 
L 370.577528 221.782572 
L 371.896703 223.528916 
L 373.215878 224.624224 
L 375.854228 225.278991 
L 378.492578 225.205637 
L 379.811753 225.397365 
L 381.130928 225.841315 
L 383.769277 224.949889 
L 385.088452 225.66229 
L 387.726802 226.436687 
L 390.365152 225.504243 
L 391.684327 224.349973 
L 393.003502 225.418959 
L 394.322677 225.737839 
L 395.641852 224.686867 
L 396.961027 225.265744 
L 398.280202 224.795595 
L 399.599376 225.419912 
L 400.918551 225.102976 
L 402.237726 226.54288 
L 403.556901 227.717989 
L 404.876076 229.915982 
L 406.195251 228.934312 
L 407.514426 229.372979 
L 408.833601 229.279478 
L 410.152776 231.905793 
L 411.471951 230.0852 
L 412.791126 229.300209 
L 414.110301 229.187796 
L 415.429476 231.711377 
L 416.74865 232.975425 
L 418.067825 232.771144 
L 419.387 231.71684 
L 422.02535 232.44636 
L 423.344525 233.414684 
L 424.6637 232.394347 
L 425.982875 232.489267 
L 427.30205 232.766474 
L 428.621225 232.794891 
L 431.259575 234.31246 
L 432.57875 232.355412 
L 435.217099 232.102989 
L 436.536274 234.551074 
L 437.855449 235.077581 
L 439.174624 234.220971 
L 440.493799 232.725207 
L 441.812974 234.126937 
L 443.132149 235.01341 
L 444.451324 234.995785 
L 445.770499 232.208477 
L 447.089674 233.190549 
L 448.408849 233.880029 
L 449.728024 235.559819 
L 451.047199 234.964338 
L 452.366373 235.779088 
L 453.685548 235.277979 
L 455.004723 236.411646 
L 456.323898 235.808247 
L 457.643073 235.440745 
L 458.962248 233.985157 
L 460.281423 235.593578 
L 461.600598 233.764553 
L 464.238948 233.698132 
L 465.558123 232.572444 
L 466.877298 232.938446 
L 468.196473 232.933666 
L 469.515647 232.202729 
L 470.834822 233.730218 
L 472.153997 233.329702 
L 473.473172 231.566584 
L 474.792347 232.2554 
L 476.111522 231.824495 
L 477.430697 233.268759 
L 478.749872 233.925874 
L 480.069047 233.538968 
L 481.388222 233.428433 
L 482.707397 236.5836 
L 484.026572 237.538266 
L 485.345747 239.765584 
L 486.664921 239.418478 
L 487.984096 237.841972 
L 489.303271 238.707623 
L 490.622446 240.250677 
L 491.941621 237.921897 
L 493.260796 237.703477 
L 494.579971 237.280281 
L 495.899146 238.451285 
L 497.218321 240.73379 
L 498.537496 239.289588 
L 501.175846 239.926229 
L 502.495021 239.285136 
L 503.814195 238.929058 
L 505.13337 238.413346 
L 506.452545 236.373822 
L 507.77172 236.929233 
L 509.090895 236.239746 
L 510.41007 238.368973 
L 511.729245 238.424851 
L 513.04842 238.666818 
L 514.367595 240.067402 
L 515.68677 241.204419 
L 517.005945 241.073559 
L 518.32512 239.759449 
L 519.644295 238.866227 
L 520.96347 240.632284 
L 522.282644 238.427647 
L 523.601819 236.654571 
L 524.920994 236.456237 
L 526.240169 237.665342 
L 527.559344 240.091522 
L 528.878519 238.754941 
L 530.197694 238.019617 
L 531.516869 240.109689 
L 532.836044 240.686604 
L 534.155219 239.36444 
L 535.474394 239.061391 
L 536.793569 237.887512 
L 538.112744 238.873859 
L 539.431918 238.551149 
L 540.751093 238.873035 
L 542.070268 238.048873 
L 543.389443 238.080722 
L 544.708618 237.734846 
L 547.346968 240.216417 
L 548.666143 240.313733 
L 549.985318 239.913819 
L 551.304493 240.552635 
L 553.942843 242.963719 
L 556.581192 240.627122 
L 557.900367 240.885165 
L 559.219542 240.558386 
L 560.538717 239.830998 
L 561.857892 239.85428 
L 563.177067 239.433583 
L 564.496242 239.195152 
L 567.134592 240.302818 
L 568.453767 241.717753 
L 569.772942 242.467047 
L 571.092117 243.354732 
L 572.411292 243.154024 
L 573.730467 243.748942 
L 575.049641 243.44434 
L 577.687991 240.801195 
L 579.007166 241.162423 
L 580.326341 240.665006 
L 581.645516 240.703558 
L 582.964691 240.600877 
L 584.283866 240.65642 
L 585.603041 241.78668 
L 588.241391 241.160777 
L 589.560566 240.955142 
L 590.879741 240.614114 
L 590.879741 240.614114 
" clip-path="url(#p9c9e0b036c)" id="val-curve" class="draw-val" style="fill: none; stroke: #5eead4; stroke-opacity: 0.95; stroke-width: 2.1; stroke-linecap: round; stroke-dasharray:705.7; stroke-dashoffset:705.7;"/>
   </g>
   <g id="PathCollection_1">
    <defs>
     <path id="ma9abedcfed" d="M 0 -6.519202 
L -1.463652 -2.014544 
L -6.20013 -2.014544 
L -2.368239 0.769487 
L -3.831891 5.274146 
L -0 2.490114 
L 3.831891 5.274146 
L 2.368239 0.769487 
L 6.20013 -2.014544 
L 1.463652 -2.014544 
z
" style="stroke: #ff8a5b; stroke-width: 0.8"/>
    </defs>
    <g clip-path="url(#p9c9e0b036c)">
     <use xlink:href="#ma9abedcfed" x="696.1499" y="259.339918" id="target-star" class="pulse-star" style="fill: #e8e6df; stroke: #ff8a5b; stroke-width: 0.8"/>
    </g>
   </g>
   <g id="PathCollection_2">
    <path d="M 590.879741 262.255857 
C 592.608653 262.255857 594.266987 261.568953 595.489513 260.346427 
C 596.712039 259.123901 597.398943 257.465567 597.398943 255.736655 
C 597.398943 254.007742 596.712039 252.349408 595.489513 251.126883 
C 594.266987 249.904357 592.608653 249.217452 590.879741 249.217452 
C 589.150828 249.217452 587.492494 249.904357 586.269968 251.126883 
C 585.047442 252.349408 584.360538 254.007742 584.360538 255.736655 
C 584.360538 257.465567 585.047442 259.123901 586.269968 260.346427 
C 587.492494 261.568953 589.150828 262.255857 590.879741 262.255857 
L 590.879741 262.255857 
z
" clip-path="url(#p9c9e0b036c)" id="now-ring" class="pulse-ring" style="fill: none; stroke: #ff8a5b; stroke-width: 1.4"/>
   </g>
   <g id="PathCollection_3">
    <defs>
     <path id="mdab9768f67" d="M 0 3.391165 
C 0.899347 3.391165 1.761981 3.03385 2.397916 2.397916 
C 3.03385 1.761981 3.391165 0.899347 3.391165 0 
C 3.391165 -0.899347 3.03385 -1.761981 2.397916 -2.397916 
C 1.761981 -3.03385 0.899347 -3.391165 0 -3.391165 
C -0.899347 -3.391165 -1.761981 -3.03385 -2.397916 -2.397916 
C -3.03385 -1.761981 -3.391165 -0.899347 -3.391165 0 
C -3.391165 0.899347 -3.03385 1.761981 -2.397916 2.397916 
C -1.761981 3.03385 -0.899347 3.391165 0 3.391165 
z
" style="stroke: #ff8a5b; stroke-width: 1.6"/>
    </defs>
    <g clip-path="url(#p9c9e0b036c)">
     <use xlink:href="#mdab9768f67" x="139.721916" y="143.914339" style="fill: #10141c; stroke: #ff8a5b; stroke-width: 1.6"/>
    </g>
   </g>
   <g id="PathCollection_4">
    <g clip-path="url(#p9c9e0b036c)">
     <use xlink:href="#mdab9768f67" x="214.914887" y="197.293041" style="fill: #10141c; stroke: #ff8a5b; stroke-width: 1.6"/>
    </g>
   </g>
   <g id="PathCollection_5">
    <g clip-path="url(#p9c9e0b036c)">
     <use xlink:href="#mdab9768f67" x="290.107858" y="228.273993" style="fill: #10141c; stroke: #ff8a5b; stroke-width: 1.6"/>
    </g>
   </g>
   <g id="PathCollection_6">
    <g clip-path="url(#p9c9e0b036c)">
     <use xlink:href="#mdab9768f67" x="365.300828" y="242.321328" style="fill: #10141c; stroke: #ff8a5b; stroke-width: 1.6"/>
    </g>
   </g>
   <g id="PathCollection_7">
    <g clip-path="url(#p9c9e0b036c)">
     <use xlink:href="#mdab9768f67" x="440.493799" y="252.776455" style="fill: #10141c; stroke: #ff8a5b; stroke-width: 1.6"/>
    </g>
   </g>
   <g id="PathCollection_8">
    <g clip-path="url(#p9c9e0b036c)">
     <use xlink:href="#mdab9768f67" x="515.68677" y="257.242675" style="fill: #10141c; stroke: #ff8a5b; stroke-width: 1.6"/>
    </g>
   </g>
   <g id="PathCollection_9">
    <defs>
     <path id="me600621f58" d="M 0 3.708099 
C 0.983399 3.708099 1.926654 3.317391 2.622022 2.622022 
C 3.317391 1.926654 3.708099 0.983399 3.708099 0 
C 3.708099 -0.983399 3.317391 -1.926654 2.622022 -2.622022 
C 1.926654 -3.317391 0.983399 -3.708099 0 -3.708099 
C -0.983399 -3.708099 -1.926654 -3.317391 -2.622022 -2.622022 
C -3.317391 -1.926654 -3.708099 -0.983399 -3.708099 0 
C -3.708099 0.983399 -3.317391 1.926654 -2.622022 2.622022 
C -1.926654 3.317391 -0.983399 3.708099 0 3.708099 
z
" style="stroke: #ff8a5b"/>
    </defs>
    <g clip-path="url(#p9c9e0b036c)">
     <use xlink:href="#me600621f58" x="590.879741" y="255.736655" style="fill: #ff8a5b; stroke: #ff8a5b"/>
    </g>
   </g>
   <g id="text_15">
    <!-- 01 -->
    <g style="fill: #e8e6df" transform="translate(134.604651 124.019373) scale(0.085 -0.085)">
     <use xlink:href="#DejaVuSansMono-30"/>
     <use xlink:href="#DejaVuSansMono-31" transform="translate(60.205078 0)"/>
    </g>
   </g>
   <g id="text_16">
    <!-- 02 -->
    <g style="fill: #e8e6df" transform="translate(209.797621 177.398074) scale(0.085 -0.085)">
     <use xlink:href="#DejaVuSansMono-30"/>
     <use xlink:href="#DejaVuSansMono-32" transform="translate(60.205078 0)"/>
    </g>
   </g>
   <g id="text_17">
    <!-- 03 -->
    <g style="fill: #e8e6df" transform="translate(284.990592 208.379026) scale(0.085 -0.085)">
     <use xlink:href="#DejaVuSansMono-30"/>
     <use xlink:href="#DejaVuSansMono-33" transform="translate(60.205078 0)"/>
    </g>
   </g>
   <g id="text_18">
    <!-- 04 -->
    <g style="fill: #e8e6df" transform="translate(360.183563 222.426361) scale(0.085 -0.085)">
     <use xlink:href="#DejaVuSansMono-30"/>
     <use xlink:href="#DejaVuSansMono-34" transform="translate(60.205078 0)"/>
    </g>
   </g>
   <g id="text_19">
    <!-- 05 -->
    <g style="fill: #e8e6df" transform="translate(435.376533 232.881489) scale(0.085 -0.085)">
     <defs>
      <path id="DejaVuSansMono-35" d="M 647 4666 
L 3009 4666 
L 3009 4134 
L 1222 4134 
L 1222 2988 
Q 1356 3038 1492 3061 
Q 1628 3084 1766 3084 
Q 2491 3084 2916 2656 
Q 3341 2228 3341 1497 
Q 3341 759 2895 334 
Q 2450 -91 1678 -91 
Q 1306 -91 998 -41 
Q 691 9 447 109 
L 447 750 
Q 734 594 1025 517 
Q 1316 441 1619 441 
Q 2141 441 2423 716 
Q 2706 991 2706 1497 
Q 2706 1997 2414 2275 
Q 2122 2553 1600 2553 
Q 1347 2553 1106 2495 
Q 866 2438 647 2322 
L 647 4666 
z
" transform="scale(0.015625)"/>
     </defs>
     <use xlink:href="#DejaVuSansMono-30"/>
     <use xlink:href="#DejaVuSansMono-35" transform="translate(60.205078 0)"/>
    </g>
   </g>
   <g id="text_20">
    <!-- 06 -->
    <g style="fill: #e8e6df" transform="translate(510.569504 237.347708) scale(0.085 -0.085)">
     <use xlink:href="#DejaVuSansMono-30"/>
     <use xlink:href="#DejaVuSansMono-36" transform="translate(60.205078 0)"/>
    </g>
   </g>
   <g id="text_21">
    <!-- 07 -->
    <g style="fill: #e8e6df" transform="translate(585.762475 235.841688) scale(0.085 -0.085)">
     <defs>
      <path id="DejaVuSansMono-37" d="M 434 4666 
L 3372 4666 
L 3372 4397 
L 1703 0 
L 1044 0 
L 2669 4134 
L 434 4134 
L 434 4666 
z
" transform="scale(0.015625)"/>
     </defs>
     <use xlink:href="#DejaVuSansMono-30"/>
     <use xlink:href="#DejaVuSansMono-37" transform="translate(60.205078 0)"/>
    </g>
   </g>
  </g>
 </g>
 <defs>
  <clipPath id="p9c9e0b036c">
   <rect x="53.25" y="14" width="740.650761" height="270.7"/>
  </clipPath>
 </defs>
</svg>
