<?xml version="1.0" encoding="utf-8" standalone="no"?>
<!DOCTYPE svg PUBLIC "-//W3C//DTD SVG 1.1//EN"
  "http://www.w3.org/Graphics/SVG/1.1/DTD/svg11.dtd">
<svg xmlns:xlink="http://www.w3.org/1999/xlink" width="835.2pt" height="331.2pt" viewBox="0 0 835.2 331.2" xmlns="http://www.w3.org/2000/svg" version="1.1">
 <defs>
  <style type="text/css"><![CDATA[
    .draw-train { animation: draw-t 1.9s cubic-bezier(.4,0,.2,1) forwards; }
    .draw-val   { animation: draw-v 1.9s cubic-bezier(.4,0,.2,1) 0.25s forwards; }
    @keyframes draw-t { to { stroke-dashoffset: 0; } }
    @keyframes draw-v { to { stroke-dashoffset: 0; } }
    .pulse-ring { animation: pulsering 2.4s ease-in-out infinite; transform-box: fill-box; transform-origin: center; }
    @keyframes pulsering { 0%,100% { opacity: 1; transform: scale(1); } 50% { opacity: .3; transform: scale(1.18); } }
  ]]></style>
 </defs>
 <rect x="1" y="1" width="833.2" height="329.2" rx="3" fill="#10141C" stroke="#232A38" stroke-width="1.2"/>

 <metadata>
  <rdf:RDF xmlns:dc="http://purl.org/dc/elements/1.1/" xmlns:cc="http://creativecommons.org/ns#" xmlns:rdf="http://www.w3.org/1999/02/22-rdf-syntax-ns#">
   <cc:Work>
    <dc:type rdf:resource="http://purl.org/dc/dcmitype/StillImage"/>
    <dc:date>2026-07-16T17:16:17.329140</dc:date>
    <dc:format>image/svg+xml</dc:format>
    <dc:creator>
     <cc:Agent>
      <dc:title>Matplotlib v3.10.8, https://matplotlib.org/</dc:title>
     </cc:Agent>
    </dc:creator>
   </cc:Work>
  </rdf:RDF>
 </metadata>
 <defs>
  <style type="text/css">*{stroke-linejoin: round; stroke-linecap: butt}</style>
 </defs>
 <g id="figure_1">
  <g id="patch_1">
   <path d="M 0 331.2 
L 835.2 331.2 
L 835.2 0 
L 0 0 
L 0 331.2 
z
" style="fill: none; opacity: 0"/>
  </g>
  <g id="axes_1">
   <g id="patch_2">
    <path d="M 53.25 284.7 
L 821.2 284.7 
L 821.2 14 
L 53.25 14 
L 53.25 284.7 
z
" style="fill: none"/>
   </g>
   <g id="line2d_1">
    <path d="M 53.25 236.360714 
L 821.2 236.360714 
" clip-path="url(#pa8025cc720)" style="fill: none; stroke: #1a1f2a; stroke-width: 0.8; stroke-linecap: square"/>
   </g>
   <g id="line2d_2">
    <path d="M 53.25 188.021429 
L 821.2 188.021429 
" clip-path="url(#pa8025cc720)" style="fill: none; stroke: #1a1f2a; stroke-width: 0.8; stroke-linecap: square"/>
   </g>
   <g id="line2d_3">
    <path d="M 53.25 139.682143 
L 821.2 139.682143 
" clip-path="url(#pa8025cc720)" style="fill: none; stroke: #1a1f2a; stroke-width: 0.8; stroke-linecap: square"/>
   </g>
   <g id="line2d_4">
    <path d="M 53.25 91.342857 
L 821.2 91.342857 
" clip-path="url(#pa8025cc720)" style="fill: none; stroke: #1a1f2a; stroke-width: 0.8; stroke-linecap: square"/>
   </g>
   <g id="line2d_5">
    <path d="M 53.25 43.003571 
L 821.2 43.003571 
" clip-path="url(#pa8025cc720)" style="fill: none; stroke: #1a1f2a; stroke-width: 0.8; stroke-linecap: square"/>
   </g>
   <g id="matplotlib.axis_1">
    <g id="xtick_1">
     <g id="line2d_6">
      <defs>
       <path id="m491f35cb18" d="M 0 0 
L 0 3 
" style="stroke: #7c8496; stroke-width: 0.8"/>
      </defs>
      <g>
       <use xlink:href="#m491f35cb18" x="66.882249" y="284.7" style="fill: #7c8496; stroke: #7c8496; stroke-width: 0.8"/>
      </g>
     </g>
     <g id="text_1">
      <!-- yr 1 -->
      <g style="fill: #7c8496" transform="translate(56.647717 297.703828) scale(0.085 -0.085)">
       <defs>
        <path id="DejaVuSansMono-79" d="M 2681 1125 
Q 2538 759 2316 163 
Q 2006 -663 1900 -844 
Q 1756 -1088 1540 -1209 
Q 1325 -1331 1038 -1331 
L 575 -1331 
L 575 -850 
L 916 -850 
Q 1169 -850 1312 -703 
Q 1456 -556 1678 56 
L 325 3500 
L 934 3500 
L 1972 763 
L 2994 3500 
L 3603 3500 
L 2681 1125 
z
" transform="scale(0.015625)"/>
        <path id="DejaVuSansMono-72" d="M 3609 2778 
Q 3425 2922 3234 2987 
Q 3044 3053 2816 3053 
Q 2278 3053 1993 2715 
Q 1709 2378 1709 1741 
L 1709 0 
L 1131 0 
L 1131 3500 
L 1709 3500 
L 1709 2816 
Q 1853 3188 2151 3386 
Q 2450 3584 2859 3584 
Q 3072 3584 3256 3531 
Q 3441 3478 3609 3366 
L 3609 2778 
z
" transform="scale(0.015625)"/>
        <path id="DejaVuSansMono-20" transform="scale(0.015625)"/>
        <path id="DejaVuSansMono-31" d="M 844 531 
L 1825 531 
L 1825 4097 
L 769 3859 
L 769 4434 
L 1819 4666 
L 2450 4666 
L 2450 531 
L 3419 531 
L 3419 0 
L 844 0 
L 844 531 
z
" transform="scale(0.015625)"/>
       </defs>
       <use xlink:href="#DejaVuSansMono-79"/>
       <use xlink:href="#DejaVuSansMono-72" transform="translate(60.205078 0)"/>
       <use xlink:href="#DejaVuSansMono-20" transform="translate(120.410156 0)"/>
       <use xlink:href="#DejaVuSansMono-31" transform="translate(180.615234 0)"/>
      </g>
     </g>
    </g>
    <g id="xtick_2">
     <g id="line2d_7">
      <g>
       <use xlink:href="#m491f35cb18" x="157.763905" y="284.7" style="fill: #7c8496; stroke: #7c8496; stroke-width: 0.8"/>
      </g>
     </g>
    </g>
    <g id="xtick_3">
     <g id="line2d_8">
      <g>
       <use xlink:href="#m491f35cb18" x="248.645562" y="284.7" style="fill: #7c8496; stroke: #7c8496; stroke-width: 0.8"/>
      </g>
     </g>
    </g>
    <g id="xtick_4">
     <g id="line2d_9">
      <g>
       <use xlink:href="#m491f35cb18" x="339.527219" y="284.7" style="fill: #7c8496; stroke: #7c8496; stroke-width: 0.8"/>
      </g>
     </g>
     <g id="text_2">
      <!-- yr 2 -->
      <g style="fill: #7c8496" transform="translate(329.292688 297.703828) scale(0.085 -0.085)">
       <defs>
        <path id="DejaVuSansMono-32" d="M 1166 531 
L 3309 531 
L 3309 0 
L 475 0 
L 475 531 
Q 1059 1147 1496 1619 
Q 1934 2091 2100 2284 
Q 2413 2666 2522 2902 
Q 2631 3138 2631 3384 
Q 2631 3775 2401 3997 
Q 2172 4219 1772 4219 
Q 1488 4219 1175 4116 
Q 863 4013 513 3803 
L 513 4441 
Q 834 4594 1145 4672 
Q 1456 4750 1759 4750 
Q 2444 4750 2861 4386 
Q 3278 4022 3278 3431 
Q 3278 3131 3139 2831 
Q 3000 2531 2688 2169 
Q 2513 1966 2180 1606 
Q 1847 1247 1166 531 
z
" transform="scale(0.015625)"/>
       </defs>
       <use xlink:href="#DejaVuSansMono-79"/>
       <use xlink:href="#DejaVuSansMono-72" transform="translate(60.205078 0)"/>
       <use xlink:href="#DejaVuSansMono-20" transform="translate(120.410156 0)"/>
       <use xlink:href="#DejaVuSansMono-32" transform="translate(180.615234 0)"/>
      </g>
     </g>
    </g>
    <g id="xtick_5">
     <g id="line2d_10">
      <g>
       <use xlink:href="#m491f35cb18" x="430.408876" y="284.7" style="fill: #7c8496; stroke: #7c8496; stroke-width: 0.8"/>
      </g>
     </g>
    </g>
    <g id="xtick_6">
     <g id="line2d_11">
      <g>
       <use xlink:href="#m491f35cb18" x="521.290533" y="284.7" style="fill: #7c8496; stroke: #7c8496; stroke-width: 0.8"/>
      </g>
     </g>
    </g>
    <g id="xtick_7">
     <g id="line2d_12">
      <g>
       <use xlink:href="#m491f35cb18" x="612.172189" y="284.7" style="fill: #7c8496; stroke: #7c8496; stroke-width: 0.8"/>
      </g>
     </g>
     <g id="text_3">
      <!-- yr 3 -->
      <g style="fill: #7c8496" transform="translate(601.937658 297.703828) scale(0.085 -0.085)">
       <defs>
        <path id="DejaVuSansMono-33" d="M 2425 2497 
Q 2884 2375 3128 2064 
Q 3372 1753 3372 1288 
Q 3372 644 2939 276 
Q 2506 -91 1741 -91 
Q 1419 -91 1084 -31 
Q 750 28 428 141 
L 428 769 
Q 747 603 1056 522 
Q 1366 441 1672 441 
Q 2191 441 2469 675 
Q 2747 909 2747 1350 
Q 2747 1756 2469 1995 
Q 2191 2234 1716 2234 
L 1234 2234 
L 1234 2753 
L 1716 2753 
Q 2150 2753 2394 2943 
Q 2638 3134 2638 3475 
Q 2638 3834 2411 4026 
Q 2184 4219 1766 4219 
Q 1488 4219 1191 4156 
Q 894 4094 569 3969 
L 569 4550 
Q 947 4650 1242 4700 
Q 1538 4750 1766 4750 
Q 2447 4750 2855 4408 
Q 3263 4066 3263 3500 
Q 3263 3116 3048 2859 
Q 2834 2603 2425 2497 
z
" transform="scale(0.015625)"/>
       </defs>
       <use xlink:href="#DejaVuSansMono-79"/>
       <use xlink:href="#DejaVuSansMono-72" transform="translate(60.205078 0)"/>
       <use xlink:href="#DejaVuSansMono-20" transform="translate(120.410156 0)"/>
       <use xlink:href="#DejaVuSansMono-33" transform="translate(180.615234 0)"/>
      </g>
     </g>
    </g>
    <g id="xtick_8">
     <g id="line2d_13">
      <g>
       <use xlink:href="#m491f35cb18" x="703.053846" y="284.7" style="fill: #7c8496; stroke: #7c8496; stroke-width: 0.8"/>
      </g>
     </g>
     <g id="text_4">
      <!-- now -->
      <g style="fill: #7c8496" transform="translate(695.377948 297.703828) scale(0.085 -0.085)">
       <defs>
        <path id="DejaVuSansMono-6e" d="M 3284 2169 
L 3284 0 
L 2706 0 
L 2706 2169 
Q 2706 2641 2540 2862 
Q 2375 3084 2022 3084 
Q 1619 3084 1401 2798 
Q 1184 2513 1184 1978 
L 1184 0 
L 609 0 
L 609 3500 
L 1184 3500 
L 1184 2975 
Q 1338 3275 1600 3429 
Q 1863 3584 2222 3584 
Q 2756 3584 3020 3232 
Q 3284 2881 3284 2169 
z
" transform="scale(0.015625)"/>
        <path id="DejaVuSansMono-6f" d="M 1925 3097 
Q 1488 3097 1263 2756 
Q 1038 2416 1038 1747 
Q 1038 1081 1263 739 
Q 1488 397 1925 397 
Q 2366 397 2591 739 
Q 2816 1081 2816 1747 
Q 2816 2416 2591 2756 
Q 2366 3097 1925 3097 
z
M 1925 3584 
Q 2653 3584 3039 3112 
Q 3425 2641 3425 1747 
Q 3425 850 3040 379 
Q 2656 -91 1925 -91 
Q 1197 -91 812 379 
Q 428 850 428 1747 
Q 428 2641 812 3112 
Q 1197 3584 1925 3584 
z
" transform="scale(0.015625)"/>
        <path id="DejaVuSansMono-77" d="M 0 3500 
L 569 3500 
L 1178 672 
L 1678 2478 
L 2169 2478 
L 2675 672 
L 3284 3500 
L 3853 3500 
L 3034 0 
L 2484 0 
L 1925 1919 
L 1369 0 
L 819 0 
L 0 3500 
z
" transform="scale(0.015625)"/>
       </defs>
       <use xlink:href="#DejaVuSansMono-6e"/>
       <use xlink:href="#DejaVuSansMono-6f" transform="translate(60.205078 0)"/>
       <use xlink:href="#DejaVuSansMono-77" transform="translate(120.410156 0)"/>
      </g>
     </g>
    </g>
    <g id="text_5">
     <!-- epoch  (semester progression) -->
     <g style="fill: #7c8496" transform="translate(354.295195 314.690078) scale(0.095 -0.095)">
      <defs>
       <path id="DejaVuSansMono-65" d="M 3475 1894 
L 3475 1613 
L 984 1613 
L 984 1594 
Q 984 1022 1282 709 
Q 1581 397 2125 397 
Q 2400 397 2700 484 
Q 3000 572 3341 750 
L 3341 178 
Q 3013 44 2708 -23 
Q 2403 -91 2119 -91 
Q 1303 -91 843 398 
Q 384 888 384 1747 
Q 384 2584 834 3084 
Q 1284 3584 2034 3584 
Q 2703 3584 3089 3131 
Q 3475 2678 3475 1894 
z
M 2900 2063 
Q 2888 2569 2661 2833 
Q 2434 3097 2009 3097 
Q 1594 3097 1325 2822 
Q 1056 2547 1006 2059 
L 2900 2063 
z
" transform="scale(0.015625)"/>
       <path id="DejaVuSansMono-70" d="M 1172 441 
L 1172 -1331 
L 594 -1331 
L 594 3500 
L 1172 3500 
L 1172 3053 
Q 1316 3313 1555 3448 
Q 1794 3584 2106 3584 
Q 2741 3584 3102 3093 
Q 3463 2603 3463 1734 
Q 3463 881 3100 395 
Q 2738 -91 2106 -91 
Q 1788 -91 1548 45 
Q 1309 181 1172 441 
z
M 2859 1747 
Q 2859 2416 2648 2756 
Q 2438 3097 2022 3097 
Q 1603 3097 1387 2755 
Q 1172 2413 1172 1747 
Q 1172 1084 1387 740 
Q 1603 397 2022 397 
Q 2438 397 2648 737 
Q 2859 1078 2859 1747 
z
" transform="scale(0.015625)"/>
       <path id="DejaVuSansMono-63" d="M 3316 178 
Q 3084 44 2839 -23 
Q 2594 -91 2338 -91 
Q 1525 -91 1067 396 
Q 609 884 609 1747 
Q 609 2609 1067 3096 
Q 1525 3584 2338 3584 
Q 2591 3584 2831 3518 
Q 3072 3453 3316 3316 
L 3316 2713 
Q 3088 2916 2858 3006 
Q 2628 3097 2338 3097 
Q 1797 3097 1506 2747 
Q 1216 2397 1216 1747 
Q 1216 1100 1508 748 
Q 1800 397 2338 397 
Q 2638 397 2875 489 
Q 3113 581 3316 775 
L 3316 178 
z
" transform="scale(0.015625)"/>
       <path id="DejaVuSansMono-68" d="M 3284 2169 
L 3284 0 
L 2706 0 
L 2706 2169 
Q 2706 2641 2540 2862 
Q 2375 3084 2022 3084 
Q 1619 3084 1401 2798 
Q 1184 2513 1184 1978 
L 1184 0 
L 609 0 
L 609 4863 
L 1184 4863 
L 1184 2975 
Q 1338 3275 1600 3429 
Q 1863 3584 2222 3584 
Q 2756 3584 3020 3232 
Q 3284 2881 3284 2169 
z
" transform="scale(0.015625)"/>
       <path id="DejaVuSansMono-28" d="M 2766 4856 
Q 2350 4144 2145 3436 
Q 1941 2728 1941 2009 
Q 1941 1294 2145 584 
Q 2350 -125 2766 -844 
L 2266 -844 
Q 1794 -100 1562 604 
Q 1331 1309 1331 2009 
Q 1331 2706 1562 3412 
Q 1794 4119 2266 4856 
L 2766 4856 
z
" transform="scale(0.015625)"/>
       <path id="DejaVuSansMono-73" d="M 3041 3378 
L 3041 2816 
Q 2794 2959 2544 3031 
Q 2294 3103 2034 3103 
Q 1644 3103 1451 2976 
Q 1259 2850 1259 2591 
Q 1259 2356 1403 2240 
Q 1547 2125 2119 2016 
L 2350 1972 
Q 2778 1891 2998 1647 
Q 3219 1403 3219 1013 
Q 3219 494 2850 201 
Q 2481 -91 1825 -91 
Q 1566 -91 1281 -36 
Q 997 19 666 128 
L 666 722 
Q 988 556 1281 473 
Q 1575 391 1838 391 
Q 2219 391 2428 545 
Q 2638 700 2638 978 
Q 2638 1378 1872 1531 
L 1847 1538 
L 1631 1581 
Q 1134 1678 906 1908 
Q 678 2138 678 2534 
Q 678 3038 1018 3311 
Q 1359 3584 1991 3584 
Q 2272 3584 2531 3532 
Q 2791 3481 3041 3378 
z
" transform="scale(0.015625)"/>
       <path id="DejaVuSansMono-6d" d="M 2113 3144 
Q 2219 3369 2383 3476 
Q 2547 3584 2778 3584 
Q 3200 3584 3373 3257 
Q 3547 2931 3547 2028 
L 3547 0 
L 3022 0 
L 3022 2003 
Q 3022 2744 2939 2923 
Q 2856 3103 2638 3103 
Q 2388 3103 2295 2911 
Q 2203 2719 2203 2003 
L 2203 0 
L 1678 0 
L 1678 2003 
Q 1678 2753 1589 2928 
Q 1500 3103 1269 3103 
Q 1041 3103 952 2911 
Q 863 2719 863 2003 
L 863 0 
L 341 0 
L 341 3500 
L 863 3500 
L 863 3200 
Q 966 3388 1120 3486 
Q 1275 3584 1472 3584 
Q 1709 3584 1867 3475 
Q 2025 3366 2113 3144 
z
" transform="scale(0.015625)"/>
       <path id="DejaVuSansMono-74" d="M 1919 4494 
L 1919 3500 
L 3225 3500 
L 3225 3053 
L 1919 3053 
L 1919 1153 
Q 1919 766 2066 612 
Q 2213 459 2578 459 
L 3225 459 
L 3225 0 
L 2522 0 
Q 1875 0 1609 259 
Q 1344 519 1344 1153 
L 1344 3053 
L 409 3053 
L 409 3500 
L 1344 3500 
L 1344 4494 
L 1919 4494 
z
" transform="scale(0.015625)"/>
       <path id="DejaVuSansMono-67" d="M 2681 1778 
Q 2681 2425 2470 2761 
Q 2259 3097 1856 3097 
Q 1434 3097 1212 2761 
Q 991 2425 991 1778 
Q 991 1131 1214 792 
Q 1438 453 1863 453 
Q 2259 453 2470 793 
Q 2681 1134 2681 1778 
z
M 3256 225 
Q 3256 -563 2884 -969 
Q 2513 -1375 1791 -1375 
Q 1553 -1375 1293 -1331 
Q 1034 -1288 775 -1203 
L 775 -634 
Q 1081 -778 1331 -847 
Q 1581 -916 1791 -916 
Q 2256 -916 2468 -662 
Q 2681 -409 2681 141 
L 2681 166 
L 2681 556 
Q 2544 263 2306 119 
Q 2069 -25 1728 -25 
Q 1116 -25 750 465 
Q 384 956 384 1778 
Q 384 2603 750 3093 
Q 1116 3584 1728 3584 
Q 2066 3584 2300 3450 
Q 2534 3316 2681 3034 
L 2681 3488 
L 3256 3488 
L 3256 225 
z
" transform="scale(0.015625)"/>
       <path id="DejaVuSansMono-69" d="M 800 3500 
L 2272 3500 
L 2272 447 
L 3413 447 
L 3413 0 
L 556 0 
L 556 447 
L 1697 447 
L 1697 3053 
L 800 3053 
L 800 3500 
z
M 1697 4863 
L 2272 4863 
L 2272 4134 
L 1697 4134 
L 1697 4863 
z
" transform="scale(0.015625)"/>
       <path id="DejaVuSansMono-29" d="M 1088 4856 
L 1588 4856 
Q 2059 4119 2290 3412 
Q 2522 2706 2522 2009 
Q 2522 1306 2290 600 
Q 2059 -106 1588 -844 
L 1088 -844 
Q 1503 -119 1708 590 
Q 1913 1300 1913 2009 
Q 1913 2722 1708 3431 
Q 1503 4141 1088 4856 
z
" transform="scale(0.015625)"/>
      </defs>
      <use xlink:href="#DejaVuSansMono-65"/>
      <use xlink:href="#DejaVuSansMono-70" transform="translate(60.205078 0)"/>
      <use xlink:href="#DejaVuSansMono-6f" transform="translate(120.410156 0)"/>
      <use xlink:href="#DejaVuSansMono-63" transform="translate(180.615234 0)"/>
      <use xlink:href="#DejaVuSansMono-68" transform="translate(240.820312 0)"/>
      <use xlink:href="#DejaVuSansMono-20" transform="translate(301.025391 0)"/>
      <use xlink:href="#DejaVuSansMono-20" transform="translate(361.230469 0)"/>
      <use xlink:href="#DejaVuSansMono-28" transform="translate(421.435547 0)"/>
      <use xlink:href="#DejaVuSansMono-73" transform="translate(481.640625 0)"/>
      <use xlink:href="#DejaVuSansMono-65" transform="translate(541.845703 0)"/>
      <use xlink:href="#DejaVuSansMono-6d" transform="translate(602.050781 0)"/>
      <use xlink:href="#DejaVuSansMono-65" transform="translate(662.255859 0)"/>
      <use xlink:href="#DejaVuSansMono-73" transform="translate(722.460938 0)"/>
      <use xlink:href="#DejaVuSansMono-74" transform="translate(782.666016 0)"/>
      <use xlink:href="#DejaVuSansMono-65" transform="translate(842.871094 0)"/>
      <use xlink:href="#DejaVuSansMono-72" transform="translate(903.076172 0)"/>
      <use xlink:href="#DejaVuSansMono-20" transform="translate(963.28125 0)"/>
      <use xlink:href="#DejaVuSansMono-70" transform="translate(1023.486328 0)"/>
      <use xlink:href="#DejaVuSansMono-72" transform="translate(1083.691406 0)"/>
      <use xlink:href="#DejaVuSansMono-6f" transform="translate(1143.896484 0)"/>
      <use xlink:href="#DejaVuSansMono-67" transform="translate(1204.101562 0)"/>
      <use xlink:href="#DejaVuSansMono-72" transform="translate(1264.306641 0)"/>
      <use xlink:href="#DejaVuSansMono-65" transform="translate(1324.511719 0)"/>
      <use xlink:href="#DejaVuSansMono-73" transform="translate(1384.716797 0)"/>
      <use xlink:href="#DejaVuSansMono-73" transform="translate(1444.921875 0)"/>
      <use xlink:href="#DejaVuSansMono-69" transform="translate(1505.126953 0)"/>
      <use xlink:href="#DejaVuSansMono-6f" transform="translate(1565.332031 0)"/>
      <use xlink:href="#DejaVuSansMono-6e" transform="translate(1625.537109 0)"/>
      <use xlink:href="#DejaVuSansMono-29" transform="translate(1685.742188 0)"/>
     </g>
    </g>
   </g>
   <g id="matplotlib.axis_2">
    <g id="ytick_1">
     <g id="line2d_14">
      <defs>
       <path id="m0ee68694e1" d="M 0 0 
L -3 0 
" style="stroke: #7c8496; stroke-width: 0.8"/>
      </defs>
      <g>
       <use xlink:href="#m0ee68694e1" x="53.25" y="236.360714" style="fill: #7c8496; stroke: #7c8496; stroke-width: 0.8"/>
      </g>
     </g>
     <g id="text_6">
      <!-- 0.2 -->
      <g style="fill: #7c8496" transform="translate(31.398203 239.612628) scale(0.085 -0.085)">
       <defs>
        <path id="DejaVuSansMono-30" d="M 1509 2344 
Q 1509 2516 1629 2641 
Q 1750 2766 1919 2766 
Q 2094 2766 2219 2641 
Q 2344 2516 2344 2344 
Q 2344 2169 2220 2047 
Q 2097 1925 1919 1925 
Q 1744 1925 1626 2044 
Q 1509 2163 1509 2344 
z
M 1925 4250 
Q 1484 4250 1267 3775 
Q 1050 3300 1050 2328 
Q 1050 1359 1267 884 
Q 1484 409 1925 409 
Q 2369 409 2586 884 
Q 2803 1359 2803 2328 
Q 2803 3300 2586 3775 
Q 2369 4250 1925 4250 
z
M 1925 4750 
Q 2672 4750 3055 4137 
Q 3438 3525 3438 2328 
Q 3438 1134 3055 521 
Q 2672 -91 1925 -91 
Q 1178 -91 797 521 
Q 416 1134 416 2328 
Q 416 3525 797 4137 
Q 1178 4750 1925 4750 
z
" transform="scale(0.015625)"/>
        <path id="DejaVuSansMono-2e" d="M 1528 953 
L 2316 953 
L 2316 0 
L 1528 0 
L 1528 953 
z
" transform="scale(0.015625)"/>
       </defs>
       <use xlink:href="#DejaVuSansMono-30"/>
       <use xlink:href="#DejaVuSansMono-2e" transform="translate(60.205078 0)"/>
       <use xlink:href="#DejaVuSansMono-32" transform="translate(120.410156 0)"/>
      </g>
     </g>
    </g>
    <g id="ytick_2">
     <g id="line2d_15">
      <g>
       <use xlink:href="#m0ee68694e1" x="53.25" y="188.021429" style="fill: #7c8496; stroke: #7c8496; stroke-width: 0.8"/>
      </g>
     </g>
     <g id="text_7">
      <!-- 0.4 -->
      <g style="fill: #7c8496" transform="translate(31.398203 191.273343) scale(0.085 -0.085)">
       <defs>
        <path id="DejaVuSansMono-34" d="M 2297 4091 
L 825 1625 
L 2297 1625 
L 2297 4091 
z
M 2194 4666 
L 2925 4666 
L 2925 1625 
L 3547 1625 
L 3547 1113 
L 2925 1113 
L 2925 0 
L 2297 0 
L 2297 1113 
L 319 1113 
L 319 1709 
L 2194 4666 
z
" transform="scale(0.015625)"/>
       </defs>
       <use xlink:href="#DejaVuSansMono-30"/>
       <use xlink:href="#DejaVuSansMono-2e" transform="translate(60.205078 0)"/>
       <use xlink:href="#DejaVuSansMono-34" transform="translate(120.410156 0)"/>
      </g>
     </g>
    </g>
    <g id="ytick_3">
     <g id="line2d_16">
      <g>
       <use xlink:href="#m0ee68694e1" x="53.25" y="139.682143" style="fill: #7c8496; stroke: #7c8496; stroke-width: 0.8"/>
      </g>
     </g>
     <g id="text_8">
      <!-- 0.6 -->
      <g style="fill: #7c8496" transform="translate(31.398203 142.934057) scale(0.085 -0.085)">
       <defs>
        <path id="DejaVuSansMono-36" d="M 3097 4563 
L 3097 3981 
Q 2900 4097 2678 4158 
Q 2456 4219 2216 4219 
Q 1616 4219 1306 3767 
Q 997 3316 997 2438 
Q 1147 2750 1412 2917 
Q 1678 3084 2022 3084 
Q 2697 3084 3067 2670 
Q 3438 2256 3438 1497 
Q 3438 741 3056 325 
Q 2675 -91 1984 -91 
Q 1172 -91 794 492 
Q 416 1075 416 2328 
Q 416 3509 870 4129 
Q 1325 4750 2188 4750 
Q 2419 4750 2650 4701 
Q 2881 4653 3097 4563 
z
M 1972 2591 
Q 1569 2591 1337 2300 
Q 1106 2009 1106 1497 
Q 1106 984 1337 693 
Q 1569 403 1972 403 
Q 2391 403 2603 679 
Q 2816 956 2816 1497 
Q 2816 2041 2603 2316 
Q 2391 2591 1972 2591 
z
" transform="scale(0.015625)"/>
       </defs>
       <use xlink:href="#DejaVuSansMono-30"/>
       <use xlink:href="#DejaVuSansMono-2e" transform="translate(60.205078 0)"/>
       <use xlink:href="#DejaVuSansMono-36" transform="translate(120.410156 0)"/>
      </g>
     </g>
    </g>
    <g id="ytick_4">
     <g id="line2d_17">
      <g>
       <use xlink:href="#m0ee68694e1" x="53.25" y="91.342857" style="fill: #7c8496; stroke: #7c8496; stroke-width: 0.8"/>
      </g>
     </g>
     <g id="text_9">
      <!-- 0.8 -->
      <g style="fill: #7c8496" transform="translate(31.398203 94.594771) scale(0.085 -0.085)">
       <defs>
        <path id="DejaVuSansMono-38" d="M 1925 2216 
Q 1503 2216 1273 1980 
Q 1044 1744 1044 1313 
Q 1044 881 1276 642 
Q 1509 403 1925 403 
Q 2350 403 2579 639 
Q 2809 875 2809 1313 
Q 2809 1741 2576 1978 
Q 2344 2216 1925 2216 
z
M 1375 2478 
Q 972 2581 745 2862 
Q 519 3144 519 3541 
Q 519 4097 897 4423 
Q 1275 4750 1925 4750 
Q 2578 4750 2956 4423 
Q 3334 4097 3334 3541 
Q 3334 3144 3107 2862 
Q 2881 2581 2478 2478 
Q 2947 2375 3195 2062 
Q 3444 1750 3444 1253 
Q 3444 622 3041 265 
Q 2638 -91 1925 -91 
Q 1213 -91 811 264 
Q 409 619 409 1247 
Q 409 1747 657 2061 
Q 906 2375 1375 2478 
z
M 1147 3481 
Q 1147 3106 1347 2909 
Q 1547 2713 1925 2713 
Q 2306 2713 2506 2909 
Q 2706 3106 2706 3481 
Q 2706 3863 2507 4063 
Q 2309 4263 1925 4263 
Q 1547 4263 1347 4061 
Q 1147 3859 1147 3481 
z
" transform="scale(0.015625)"/>
       </defs>
       <use xlink:href="#DejaVuSansMono-30"/>
       <use xlink:href="#DejaVuSansMono-2e" transform="translate(60.205078 0)"/>
       <use xlink:href="#DejaVuSansMono-38" transform="translate(120.410156 0)"/>
      </g>
     </g>
    </g>
    <g id="ytick_5">
     <g id="line2d_18">
      <g>
       <use xlink:href="#m0ee68694e1" x="53.25" y="43.003571" style="fill: #7c8496; stroke: #7c8496; stroke-width: 0.8"/>
      </g>
     </g>
     <g id="text_10">
      <!-- 1.0 -->
      <g style="fill: #7c8496" transform="translate(31.398203 46.255485) scale(0.085 -0.085)">
       <use xlink:href="#DejaVuSansMono-31"/>
       <use xlink:href="#DejaVuSansMono-2e" transform="translate(60.205078 0)"/>
       <use xlink:href="#DejaVuSansMono-30" transform="translate(120.410156 0)"/>
      </g>
     </g>
    </g>
    <g id="text_11">
     <!-- loss -->
     <g style="fill: #7c8496" transform="translate(21.4225 160.788594) rotate(-90) scale(0.095 -0.095)">
      <defs>
       <path id="DejaVuSansMono-6c" d="M 1997 1269 
Q 1997 881 2139 684 
Q 2281 488 2559 488 
L 3231 488 
L 3231 0 
L 2503 0 
Q 1988 0 1705 331 
Q 1422 663 1422 1269 
L 1422 4447 
L 500 4447 
L 500 4897 
L 1997 4897 
L 1997 1269 
z
" transform="scale(0.015625)"/>
      </defs>
      <use xlink:href="#DejaVuSansMono-6c"/>
      <use xlink:href="#DejaVuSansMono-6f" transform="translate(60.205078 0)"/>
      <use xlink:href="#DejaVuSansMono-73" transform="translate(120.410156 0)"/>
      <use xlink:href="#DejaVuSansMono-73" transform="translate(180.615234 0)"/>
     </g>
    </g>
   </g>
   <g id="patch_3">
    <path d="M 53.25 284.7 
L 53.25 14 
" style="fill: none; stroke: #232a38; stroke-linejoin: miter; stroke-linecap: square"/>
   </g>
   <g id="patch_4">
    <path d="M 53.25 284.7 
L 821.2 284.7 
" style="fill: none; stroke: #232a38; stroke-linejoin: miter; stroke-linecap: square"/>
   </g>
   <g id="text_12">
    <!-- train_loss -->
    <g style="fill: #ff8a5b" transform="translate(707.597929 287.940438) scale(0.105 -0.105)">
     <defs>
      <path id="DejaVuSansMono-61" d="M 2194 1759 
L 2003 1759 
Q 1500 1759 1245 1582 
Q 991 1406 991 1056 
Q 991 741 1181 566 
Q 1372 391 1709 391 
Q 2184 391 2456 720 
Q 2728 1050 2731 1631 
L 2731 1759 
L 2194 1759 
z
M 3309 1997 
L 3309 0 
L 2731 0 
L 2731 519 
Q 2547 206 2267 57 
Q 1988 -91 1588 -91 
Q 1053 -91 734 211 
Q 416 513 416 1019 
Q 416 1603 808 1906 
Q 1200 2209 1959 2209 
L 2731 2209 
L 2731 2300 
Q 2728 2719 2518 2908 
Q 2309 3097 1850 3097 
Q 1556 3097 1256 3012 
Q 956 2928 672 2766 
L 672 3341 
Q 991 3463 1283 3523 
Q 1575 3584 1850 3584 
Q 2284 3584 2592 3456 
Q 2900 3328 3091 3072 
Q 3209 2916 3259 2686 
Q 3309 2456 3309 1997 
z
" transform="scale(0.015625)"/>
      <path id="DejaVuSansMono-5f" d="M 3853 -1259 
L 3853 -1509 
L 0 -1509 
L 0 -1259 
L 3853 -1259 
z
" transform="scale(0.015625)"/>
     </defs>
     <use xlink:href="#DejaVuSansMono-74"/>
     <use xlink:href="#DejaVuSansMono-72" transform="translate(60.205078 0)"/>
     <use xlink:href="#DejaVuSansMono-61" transform="translate(120.410156 0)"/>
     <use xlink:href="#DejaVuSansMono-69" transform="translate(180.615234 0)"/>
     <use xlink:href="#DejaVuSansMono-6e" transform="translate(240.820312 0)"/>
     <use xlink:href="#DejaVuSansMono-5f" transform="translate(301.025391 0)"/>
     <use xlink:href="#DejaVuSansMono-6c" transform="translate(361.230469 0)"/>
     <use xlink:href="#DejaVuSansMono-6f" transform="translate(421.435547 0)"/>
     <use xlink:href="#DejaVuSansMono-73" transform="translate(481.640625 0)"/>
     <use xlink:href="#DejaVuSansMono-73" transform="translate(541.845703 0)"/>
    </g>
   </g>
   <g id="text_13">
    <!-- val_loss -->
    <g style="fill: #5eead4" transform="translate(707.597929 211.551804) scale(0.105 -0.105)">
     <defs>
      <path id="DejaVuSansMono-76" d="M 313 3500 
L 909 3500 
L 1925 563 
L 2944 3500 
L 3541 3500 
L 2297 0 
L 1556 0 
L 313 3500 
z
" transform="scale(0.015625)"/>
     </defs>
     <use xlink:href="#DejaVuSansMono-76"/>
     <use xlink:href="#DejaVuSansMono-61" transform="translate(60.205078 0)"/>
     <use xlink:href="#DejaVuSansMono-6c" transform="translate(120.410156 0)"/>
     <use xlink:href="#DejaVuSansMono-5f" transform="translate(180.615234 0)"/>
     <use xlink:href="#DejaVuSansMono-6c" transform="translate(240.820312 0)"/>
     <use xlink:href="#DejaVuSansMono-6f" transform="translate(301.025391 0)"/>
     <use xlink:href="#DejaVuSansMono-73" transform="translate(361.230469 0)"/>
     <use xlink:href="#DejaVuSansMono-73" transform="translate(421.435547 0)"/>
    </g>
   </g>
   <g id="line2d_19">
    <path d="M 66.882249 41.968812 
L 68.476664 44.812391 
L 71.665494 49.44208 
L 73.259909 53.861029 
L 74.854324 55.192034 
L 76.448739 57.067912 
L 78.043154 59.914475 
L 81.231984 63.555884 
L 82.826399 65.85157 
L 84.420814 67.02259 
L 86.015229 70.646153 
L 87.609644 72.73999 
L 89.204059 74.317246 
L 90.798474 76.060904 
L 92.392889 79.322686 
L 93.987304 80.1117 
L 95.581719 81.820886 
L 97.176134 83.093113 
L 98.770549 84.090593 
L 100.364964 86.088972 
L 101.959379 89.033853 
L 103.553794 90.1894 
L 105.148209 94.469916 
L 106.742624 95.726206 
L 108.337039 97.537404 
L 109.931454 101.033553 
L 111.525869 102.093183 
L 113.120284 103.953134 
L 114.714699 105.08514 
L 116.309115 106.644043 
L 117.90353 109.387472 
L 119.497945 111.538577 
L 121.09236 111.811993 
L 122.686775 113.006623 
L 124.28119 113.793378 
L 125.875605 115.194406 
L 127.47002 115.596792 
L 129.064435 116.388747 
L 130.65885 117.647915 
L 133.84768 124.866214 
L 135.442095 125.913642 
L 137.03651 126.513421 
L 138.630925 127.692321 
L 140.22534 129.813846 
L 141.819755 129.584448 
L 145.008585 129.999051 
L 146.603 131.4612 
L 148.197415 134.30644 
L 149.79183 136.017518 
L 151.386245 137.919989 
L 152.98066 140.118773 
L 154.575075 141.633074 
L 156.16949 142.248371 
L 157.763905 143.914339 
L 159.35832 146.282807 
L 160.952735 147.404602 
L 162.54715 146.695175 
L 165.73598 150.176689 
L 167.330396 152.858934 
L 168.924811 154.468245 
L 170.519226 154.643112 
L 172.113641 156.47499 
L 173.708056 157.748339 
L 175.302471 158.821149 
L 176.896886 159.32374 
L 180.085716 158.311145 
L 181.680131 159.343895 
L 183.274546 159.479554 
L 184.868961 161.017235 
L 186.463376 162.013642 
L 188.057791 164.227035 
L 191.246621 167.140469 
L 192.841036 167.757425 
L 194.435451 169.534245 
L 196.029866 171.098629 
L 197.624281 172.320999 
L 199.218696 172.366744 
L 202.407526 173.470671 
L 204.001941 174.246412 
L 205.596356 174.254827 
L 207.190771 174.625928 
L 208.785186 175.169949 
L 210.379601 175.924506 
L 211.974016 178.033335 
L 213.568431 179.893269 
L 215.162846 179.769855 
L 216.757261 180.42654 
L 218.351677 181.906188 
L 219.946092 183.029218 
L 221.540507 184.347753 
L 223.134922 184.515722 
L 224.729337 185.048104 
L 226.323752 188.151264 
L 229.512582 190.107862 
L 231.106997 189.703788 
L 232.701412 189.836576 
L 234.295827 189.760919 
L 235.890242 191.040029 
L 237.484657 191.065014 
L 239.079072 191.915814 
L 240.673487 191.632529 
L 242.267902 192.886603 
L 245.456732 196.119492 
L 247.051147 196.516912 
L 248.645562 197.293041 
L 250.239977 198.56317 
L 251.834392 198.806948 
L 253.428807 200.067615 
L 259.806467 201.851571 
L 261.400882 201.594257 
L 262.995297 203.000945 
L 264.589712 203.150704 
L 266.184127 202.636512 
L 267.778543 203.460401 
L 269.372958 204.522669 
L 270.967373 205.29191 
L 272.561788 206.686083 
L 274.156203 207.4379 
L 275.750618 208.905195 
L 277.345033 211.209341 
L 278.939448 211.890739 
L 280.533863 212.891821 
L 282.128278 214.427681 
L 283.722693 214.413796 
L 285.317108 215.522129 
L 286.911523 215.074079 
L 288.505938 214.789676 
L 290.100353 216.060626 
L 291.694768 216.516067 
L 293.289183 216.130623 
L 294.883598 217.034758 
L 296.478013 217.601384 
L 298.072428 218.57583 
L 299.666843 219.686673 
L 301.261258 219.461179 
L 302.855673 220.278704 
L 304.450088 220.549626 
L 306.044503 220.411726 
L 309.233333 218.896801 
L 310.827748 219.359785 
L 312.422163 219.342805 
L 314.016578 217.919079 
L 315.610993 217.625153 
L 317.205408 219.067366 
L 318.799824 219.916673 
L 321.988654 220.628854 
L 323.583069 221.21726 
L 325.177484 221.684109 
L 326.771899 223.13048 
L 328.366314 222.590225 
L 329.960729 223.907045 
L 331.555144 225.958915 
L 333.149559 225.922984 
L 334.743974 226.482139 
L 336.338389 227.608468 
L 337.932804 226.956941 
L 339.527219 228.273993 
L 341.121634 228.056354 
L 342.716049 227.316623 
L 344.310464 226.818732 
L 345.904879 228.116101 
L 347.499294 227.996869 
L 349.093709 229.234142 
L 350.688124 228.753427 
L 353.876954 228.999754 
L 357.065784 230.265472 
L 358.660199 231.855301 
L 360.254614 231.425056 
L 361.849029 232.143153 
L 363.443444 231.937359 
L 366.632274 233.68223 
L 368.22669 232.16185 
L 369.821105 232.113475 
L 371.41552 234.141554 
L 373.009935 232.993066 
L 374.60435 235.179393 
L 376.198765 235.242177 
L 377.79318 234.478382 
L 380.98201 236.165423 
L 382.576425 234.534959 
L 384.17084 236.986655 
L 385.765255 236.904342 
L 387.35967 237.791886 
L 388.954085 238.149669 
L 390.5485 238.31603 
L 392.142915 237.024547 
L 393.73733 238.186965 
L 395.331745 237.651138 
L 398.520575 237.992946 
L 400.11499 238.359335 
L 401.709405 238.974513 
L 403.30382 239.422599 
L 404.898235 239.740262 
L 406.49265 240.235956 
L 408.087065 239.73687 
L 411.275895 240.118006 
L 412.87031 240.045399 
L 414.464725 239.481383 
L 417.653555 239.471623 
L 419.247971 240.3574 
L 422.436801 240.588932 
L 424.031216 241.367922 
L 425.625631 242.686261 
L 427.220046 242.306864 
L 428.814461 242.445903 
L 430.408876 242.321328 
L 432.003291 241.927771 
L 433.597706 242.486793 
L 436.786536 241.404901 
L 438.380951 241.328347 
L 439.975366 241.651899 
L 441.569781 241.840429 
L 443.164196 242.451134 
L 444.758611 242.774606 
L 446.353026 244.380538 
L 447.947441 244.49268 
L 449.541856 245.367312 
L 451.136271 244.866815 
L 452.730686 245.440315 
L 454.325101 244.985623 
L 455.919516 245.436105 
L 457.513931 244.487838 
L 459.108346 246.315274 
L 460.702761 246.593095 
L 462.297176 247.353857 
L 463.891591 246.898627 
L 465.486006 247.583545 
L 467.080421 247.33556 
L 470.269252 246.387403 
L 471.863667 247.052821 
L 473.458082 247.070395 
L 478.241327 246.031292 
L 479.835742 247.877177 
L 481.430157 247.492533 
L 483.024572 246.105016 
L 484.618987 246.191885 
L 486.213402 247.039289 
L 487.807817 247.755369 
L 489.402232 248.707209 
L 490.996647 247.344543 
L 492.591062 247.717312 
L 494.185477 247.888124 
L 495.779892 247.744117 
L 497.374307 247.999457 
L 498.968722 247.940621 
L 500.563137 247.169568 
L 502.157552 248.042193 
L 503.751967 248.419543 
L 505.346382 250.83747 
L 506.940797 250.704636 
L 508.535212 250.736946 
L 511.724042 254.342865 
L 513.318457 254.241294 
L 514.912872 253.615844 
L 516.507287 252.349242 
L 519.696118 253.154669 
L 521.290533 252.776455 
L 522.884948 251.232687 
L 524.479363 250.893118 
L 526.073778 251.488564 
L 527.668193 250.738992 
L 529.262608 251.724873 
L 530.857023 251.401884 
L 532.451438 250.029638 
L 534.045853 249.536159 
L 535.640268 249.933971 
L 537.234683 248.967306 
L 538.829098 250.233682 
L 540.423513 249.531629 
L 542.017928 249.471504 
L 543.612343 251.188537 
L 545.206758 252.261442 
L 546.801173 251.777023 
L 548.395588 253.00208 
L 549.990003 252.75952 
L 551.584418 252.185912 
L 553.178833 252.940802 
L 554.773248 252.969742 
L 556.367663 253.620926 
L 557.962078 255.027793 
L 559.556493 254.181466 
L 561.150908 254.02686 
L 562.745323 255.510381 
L 564.339738 255.195478 
L 565.934153 252.565585 
L 567.528568 252.616449 
L 569.122983 252.423676 
L 570.717399 253.14777 
L 572.311814 253.019235 
L 573.906229 252.41927 
L 575.500644 252.676124 
L 577.095059 255.247972 
L 578.689474 254.57074 
L 580.283889 254.202481 
L 581.878304 255.482656 
L 586.661549 254.60059 
L 588.255964 254.109774 
L 589.850379 254.403561 
L 591.444794 254.863271 
L 593.039209 254.746786 
L 594.633624 255.339102 
L 596.228039 256.77965 
L 597.822454 256.450639 
L 599.416869 257.247496 
L 601.011284 257.515222 
L 602.605699 257.234086 
L 604.200114 255.349065 
L 605.794529 256.271247 
L 607.388944 256.315808 
L 608.983359 257.01917 
L 610.577774 256.880141 
L 612.172189 257.242675 
L 613.766604 256.95387 
L 615.361019 257.638407 
L 616.955434 256.001263 
L 618.549849 255.634912 
L 621.73868 251.771711 
L 623.333095 251.585089 
L 624.92751 253.323596 
L 626.521925 253.907315 
L 629.710755 255.967687 
L 631.30517 257.612263 
L 632.899585 259.018648 
L 634.494 259.429988 
L 636.088415 257.665379 
L 637.68283 257.037338 
L 639.277245 257.432483 
L 640.87166 255.908267 
L 644.06049 256.818862 
L 645.654905 256.32701 
L 647.24932 256.436537 
L 650.43815 258.574399 
L 652.032565 258.396879 
L 653.62698 259.025643 
L 655.221395 258.503921 
L 656.81581 257.49017 
L 660.00464 258.298942 
L 663.19347 257.549742 
L 664.787885 256.608272 
L 666.3823 256.388474 
L 667.976715 256.957845 
L 669.57113 257.016813 
L 671.165546 256.507727 
L 672.759961 256.226512 
L 674.354376 258.907474 
L 675.948791 259.877698 
L 677.543206 260.293311 
L 679.137621 261.014449 
L 680.732036 260.769294 
L 682.326451 260.691956 
L 683.920866 260.039471 
L 685.515281 257.669013 
L 687.109696 257.310206 
L 688.704111 257.479627 
L 690.298526 258.403425 
L 691.892941 258.083049 
L 695.081771 257.840903 
L 696.676186 257.404256 
L 698.270601 256.215295 
L 699.865016 256.068521 
L 701.459431 255.100983 
L 703.053846 255.736655 
L 703.053846 255.736655 
" clip-path="url(#pa8025cc720)" id="train-curve" class="draw-train" style="fill: none; stroke: #ff8a5b; stroke-width: 2.1; stroke-linecap: round; stroke-dasharray:770.6; stroke-dashoffset:770.6;"/>
   </g>
   <g id="line2d_20">
    <path d="M 66.882249 31.123931 
L 68.476664 33.084052 
L 70.071079 36.35912 
L 71.665494 37.369427 
L 73.259909 39.86538 
L 74.854324 41.932159 
L 76.448739 43.131948 
L 78.043154 44.656287 
L 79.637569 45.695714 
L 81.231984 47.009154 
L 82.826399 51.081346 
L 84.420814 52.521975 
L 87.609644 56.056595 
L 89.204059 59.099472 
L 90.798474 61.530005 
L 92.392889 64.784475 
L 93.987304 65.897019 
L 95.581719 68.601487 
L 98.770549 72.755529 
L 100.364964 74.839699 
L 101.959379 77.16614 
L 103.553794 77.854433 
L 106.742624 80.119807 
L 108.337039 82.253342 
L 109.931454 83.846136 
L 111.525869 83.897941 
L 113.120284 85.288441 
L 114.714699 85.336035 
L 116.309115 86.508069 
L 117.90353 88.1337 
L 121.09236 89.623335 
L 122.686775 91.565959 
L 124.28119 93.259744 
L 125.875605 95.441877 
L 127.47002 96.655064 
L 129.064435 95.816815 
L 130.65885 98.298181 
L 132.253265 99.561603 
L 133.84768 101.468794 
L 135.442095 101.94712 
L 137.03651 102.654076 
L 138.630925 103.79655 
L 140.22534 108.915042 
L 141.819755 110.066278 
L 143.41417 112.535393 
L 145.008585 113.639104 
L 146.603 116.072566 
L 148.197415 118.16746 
L 149.79183 119.717601 
L 151.386245 117.400574 
L 152.98066 120.327679 
L 154.575075 121.039633 
L 156.16949 121.935555 
L 157.763905 122.585424 
L 159.35832 123.552468 
L 160.952735 126.278864 
L 162.54715 129.608664 
L 164.141565 128.07069 
L 165.73598 128.164348 
L 167.330396 129.463591 
L 168.924811 131.22709 
L 170.519226 132.006147 
L 172.113641 132.263603 
L 173.708056 132.225723 
L 175.302471 133.768718 
L 176.896886 136.129965 
L 178.491301 137.120028 
L 180.085716 138.432025 
L 181.680131 138.923011 
L 183.274546 138.873729 
L 184.868961 141.204669 
L 186.463376 141.986167 
L 188.057791 143.268582 
L 189.652206 143.591488 
L 191.246621 142.991417 
L 192.841036 144.762334 
L 194.435451 145.868517 
L 196.029866 146.255344 
L 197.624281 148.009027 
L 199.218696 148.624386 
L 202.407526 152.323672 
L 204.001941 152.941195 
L 205.596356 155.065052 
L 207.190771 155.048939 
L 208.785186 154.668611 
L 210.379601 155.488441 
L 211.974016 157.332325 
L 215.162846 157.497816 
L 216.757261 157.996652 
L 218.351677 160.388743 
L 219.946092 161.787598 
L 221.540507 161.070782 
L 223.134922 162.222124 
L 224.729337 163.211329 
L 226.323752 165.109112 
L 227.918167 166.422134 
L 229.512582 165.845917 
L 231.106997 167.807167 
L 232.701412 169.504354 
L 234.295827 167.838734 
L 235.890242 168.817531 
L 237.484657 169.98773 
L 239.079072 171.424977 
L 240.673487 173.50579 
L 242.267902 174.639379 
L 243.862317 174.364484 
L 245.456732 176.259357 
L 247.051147 177.888488 
L 248.645562 178.903219 
L 250.239977 179.049914 
L 251.834392 179.012218 
L 253.428807 179.262336 
L 255.023222 179.872065 
L 256.617637 180.911841 
L 258.212052 181.367586 
L 259.806467 180.796579 
L 261.400882 179.526675 
L 262.995297 178.902359 
L 264.589712 178.929021 
L 266.184127 180.632691 
L 267.778543 180.569904 
L 269.372958 180.185335 
L 270.967373 180.831407 
L 274.156203 185.808868 
L 275.750618 185.894106 
L 277.345033 187.570737 
L 278.939448 187.22658 
L 280.533863 188.171179 
L 282.128278 189.71176 
L 285.317108 189.784782 
L 286.911523 190.568647 
L 288.505938 189.49658 
L 290.100353 192.169536 
L 291.694768 194.153538 
L 293.289183 193.647212 
L 294.883598 194.062361 
L 298.072428 194.150168 
L 299.666843 195.516006 
L 301.261258 194.316267 
L 302.855673 194.076046 
L 304.450088 194.779214 
L 306.044503 195.766132 
L 307.638918 197.234231 
L 309.233333 197.58556 
L 310.827748 197.492299 
L 312.422163 200.046872 
L 314.016578 200.688243 
L 315.610993 200.978282 
L 317.205408 199.992741 
L 318.799824 200.094404 
L 320.394239 201.151259 
L 321.988654 203.102529 
L 323.583069 200.16124 
L 325.177484 199.384931 
L 326.771899 199.359861 
L 328.366314 200.101525 
L 329.960729 199.311169 
L 331.555144 199.129984 
L 333.149559 198.72731 
L 334.743974 200.481717 
L 336.338389 201.190869 
L 337.932804 201.289966 
L 341.121634 204.265862 
L 342.716049 204.618445 
L 344.310464 203.780913 
L 345.904879 204.621198 
L 347.499294 205.604249 
L 349.093709 207.057532 
L 350.688124 207.251648 
L 352.282539 205.770422 
L 353.876954 205.957206 
L 355.471369 206.332463 
L 358.660199 206.811077 
L 360.254614 206.182816 
L 361.849029 204.897925 
L 363.443444 206.243307 
L 365.037859 207.287655 
L 366.632274 207.766975 
L 368.22669 208.614628 
L 369.821105 207.945644 
L 371.41552 209.707661 
L 373.009935 212.028219 
L 374.60435 212.363946 
L 376.198765 212.409657 
L 377.79318 212.101989 
L 379.387595 212.347557 
L 380.98201 213.222181 
L 382.576425 213.856251 
L 384.17084 214.844801 
L 385.765255 216.930605 
L 387.35967 217.135394 
L 388.954085 219.77273 
L 392.142915 218.226927 
L 393.73733 217.86633 
L 395.331745 215.472376 
L 396.92616 214.230061 
L 398.520575 214.007601 
L 400.11499 213.562855 
L 401.709405 213.965113 
L 403.30382 216.034345 
L 404.898235 215.614225 
L 406.49265 217.489911 
L 409.68148 218.66285 
L 411.275895 218.619673 
L 412.87031 219.661749 
L 414.464725 218.646864 
L 416.05914 218.761799 
L 417.653555 219.71469 
L 419.247971 219.438178 
L 420.842386 219.653211 
L 422.436801 220.597946 
L 424.031216 220.488581 
L 425.625631 222.285211 
L 427.220046 222.037607 
L 428.814461 221.399397 
L 430.408876 222.114755 
L 433.597706 221.70787 
L 436.786536 221.782572 
L 438.380951 223.528916 
L 439.975366 224.624224 
L 443.164196 225.278991 
L 446.353026 225.205637 
L 447.947441 225.397365 
L 449.541856 225.841315 
L 452.730686 224.949889 
L 454.325101 225.66229 
L 457.513931 226.436687 
L 460.702761 225.504243 
L 462.297176 224.349973 
L 463.891591 225.418959 
L 465.486006 225.737839 
L 467.080421 224.686867 
L 468.674836 225.265744 
L 470.269252 224.795595 
L 471.863667 225.419912 
L 473.458082 225.102976 
L 475.052497 226.54288 
L 476.646912 227.717989 
L 478.241327 229.915982 
L 479.835742 228.934312 
L 481.430157 229.372979 
L 483.024572 229.279478 
L 484.618987 231.905793 
L 486.213402 230.0852 
L 487.807817 229.300209 
L 489.402232 229.187796 
L 490.996647 231.711377 
L 492.591062 232.975425 
L 494.185477 232.771144 
L 495.779892 231.71684 
L 498.968722 232.44636 
L 500.563137 233.414684 
L 502.157552 232.394347 
L 503.751967 232.489267 
L 505.346382 232.766474 
L 506.940797 232.794891 
L 510.129627 234.31246 
L 511.724042 232.355412 
L 514.912872 232.102989 
L 516.507287 234.551074 
L 518.101702 235.077581 
L 519.696118 234.220971 
L 521.290533 232.725207 
L 522.884948 234.126937 
L 524.479363 235.01341 
L 526.073778 234.995785 
L 527.668193 232.208477 
L 529.262608 233.190549 
L 530.857023 233.880029 
L 532.451438 235.559819 
L 534.045853 234.964338 
L 535.640268 235.779088 
L 537.234683 235.277979 
L 538.829098 236.411646 
L 540.423513 235.808247 
L 542.017928 235.440745 
L 543.612343 233.985157 
L 545.206758 235.593578 
L 546.801173 233.764553 
L 549.990003 233.698132 
L 551.584418 232.572444 
L 553.178833 232.938446 
L 554.773248 232.933666 
L 556.367663 232.202729 
L 557.962078 233.730218 
L 559.556493 233.329702 
L 561.150908 231.566584 
L 562.745323 232.2554 
L 564.339738 231.824495 
L 565.934153 233.268759 
L 567.528568 233.925874 
L 569.122983 233.538968 
L 570.717399 233.428433 
L 572.311814 236.5836 
L 573.906229 237.538266 
L 575.500644 239.765584 
L 577.095059 239.418478 
L 578.689474 237.841972 
L 580.283889 238.707623 
L 581.878304 240.250677 
L 583.472719 237.921897 
L 585.067134 237.703477 
L 586.661549 237.280281 
L 588.255964 238.451285 
L 589.850379 240.73379 
L 591.444794 239.289588 
L 594.633624 239.926229 
L 596.228039 239.285136 
L 597.822454 238.929058 
L 599.416869 238.413346 
L 601.011284 236.373822 
L 602.605699 236.929233 
L 604.200114 236.239746 
L 605.794529 238.368973 
L 607.388944 238.424851 
L 608.983359 238.666818 
L 610.577774 240.067402 
L 612.172189 241.204419 
L 613.766604 241.073559 
L 615.361019 239.759449 
L 616.955434 238.866227 
L 618.549849 240.632284 
L 620.144265 238.427647 
L 621.73868 236.654571 
L 623.333095 236.456237 
L 624.92751 237.665342 
L 626.521925 240.091522 
L 628.11634 238.754941 
L 629.710755 238.019617 
L 631.30517 240.109689 
L 632.899585 240.686604 
L 634.494 239.36444 
L 636.088415 239.061391 
L 637.68283 237.887512 
L 639.277245 238.873859 
L 640.87166 238.551149 
L 642.466075 238.873035 
L 644.06049 238.048873 
L 645.654905 238.080722 
L 647.24932 237.734846 
L 650.43815 240.216417 
L 652.032565 240.313733 
L 653.62698 239.913819 
L 655.221395 240.552635 
L 658.410225 242.963719 
L 661.599055 240.627122 
L 663.19347 240.885165 
L 664.787885 240.558386 
L 666.3823 239.830998 
L 667.976715 239.85428 
L 669.57113 239.433583 
L 671.165546 239.195152 
L 674.354376 240.302818 
L 675.948791 241.717753 
L 677.543206 242.467047 
L 679.137621 243.354732 
L 680.732036 243.154024 
L 682.326451 243.748942 
L 683.920866 243.44434 
L 687.109696 240.801195 
L 688.704111 241.162423 
L 690.298526 240.665006 
L 691.892941 240.703558 
L 693.487356 240.600877 
L 695.081771 240.65642 
L 696.676186 241.78668 
L 699.865016 241.160777 
L 701.459431 240.955142 
L 703.053846 240.614114 
L 703.053846 240.614114 
" clip-path="url(#pa8025cc720)" id="val-curve" class="draw-val" style="fill: none; stroke: #5eead4; stroke-opacity: 0.95; stroke-width: 2.1; stroke-linecap: round; stroke-dasharray:795.6; stroke-dashoffset:795.6;"/>
   </g>
   <g id="PathCollection_1">
    <path d="M 703.053846 262.255857 
C 704.782759 262.255857 706.441092 261.568953 707.663618 260.346427 
C 708.886144 259.123901 709.573049 257.465567 709.573049 255.736655 
C 709.573049 254.007742 708.886144 252.349408 707.663618 251.126883 
C 706.441092 249.904357 704.782759 249.217452 703.053846 249.217452 
C 701.324933 249.217452 699.6666 249.904357 698.444074 251.126883 
C 697.221548 252.349408 696.534644 254.007742 696.534644 255.736655 
C 696.534644 257.465567 697.221548 259.123901 698.444074 260.346427 
C 699.6666 261.568953 701.324933 262.255857 703.053846 262.255857 
L 703.053846 262.255857 
z
" clip-path="url(#pa8025cc720)" id="now-ring" class="pulse-ring" style="fill: none; stroke: #ff8a5b; stroke-width: 1.4"/>
   </g>
   <g id="PathCollection_2">
    <defs>
     <path id="mb07400a4fa" d="M 0 3.391165 
C 0.899347 3.391165 1.761981 3.03385 2.397916 2.397916 
C 3.03385 1.761981 3.391165 0.899347 3.391165 0 
C 3.391165 -0.899347 3.03385 -1.761981 2.397916 -2.397916 
C 1.761981 -3.03385 0.899347 -3.391165 0 -3.391165 
C -0.899347 -3.391165 -1.761981 -3.03385 -2.397916 -2.397916 
C -3.03385 -1.761981 -3.391165 -0.899347 -3.391165 0 
C -3.391165 0.899347 -3.03385 1.761981 -2.397916 2.397916 
C -1.761981 3.03385 -0.899347 3.391165 0 3.391165 
z
" style="stroke: #ff8a5b; stroke-width: 1.6"/>
    </defs>
    <g clip-path="url(#pa8025cc720)">
     <use xlink:href="#mb07400a4fa" x="157.763905" y="143.914339" style="fill: #10141c; stroke: #ff8a5b; stroke-width: 1.6"/>
    </g>
   </g>
   <g id="PathCollection_3">
    <g clip-path="url(#pa8025cc720)">
     <use xlink:href="#mb07400a4fa" x="248.645562" y="197.293041" style="fill: #10141c; stroke: #ff8a5b; stroke-width: 1.6"/>
    </g>
   </g>
   <g id="PathCollection_4">
    <g clip-path="url(#pa8025cc720)">
     <use xlink:href="#mb07400a4fa" x="339.527219" y="228.273993" style="fill: #10141c; stroke: #ff8a5b; stroke-width: 1.6"/>
    </g>
   </g>
   <g id="PathCollection_5">
    <g clip-path="url(#pa8025cc720)">
     <use xlink:href="#mb07400a4fa" x="430.408876" y="242.321328" style="fill: #10141c; stroke: #ff8a5b; stroke-width: 1.6"/>
    </g>
   </g>
   <g id="PathCollection_6">
    <g clip-path="url(#pa8025cc720)">
     <use xlink:href="#mb07400a4fa" x="521.290533" y="252.776455" style="fill: #10141c; stroke: #ff8a5b; stroke-width: 1.6"/>
    </g>
   </g>
   <g id="PathCollection_7">
    <g clip-path="url(#pa8025cc720)">
     <use xlink:href="#mb07400a4fa" x="612.172189" y="257.242675" style="fill: #10141c; stroke: #ff8a5b; stroke-width: 1.6"/>
    </g>
   </g>
   <g id="PathCollection_8">
    <defs>
     <path id="m1cc4614c5e" d="M 0 3.708099 
C 0.983399 3.708099 1.926654 3.317391 2.622022 2.622022 
C 3.317391 1.926654 3.708099 0.983399 3.708099 0 
C 3.708099 -0.983399 3.317391 -1.926654 2.622022 -2.622022 
C 1.926654 -3.317391 0.983399 -3.708099 0 -3.708099 
C -0.983399 -3.708099 -1.926654 -3.317391 -2.622022 -2.622022 
C -3.317391 -1.926654 -3.708099 -0.983399 -3.708099 0 
C -3.708099 0.983399 -3.317391 1.926654 -2.622022 2.622022 
C -1.926654 3.317391 -0.983399 3.708099 0 3.708099 
z
" style="stroke: #ff8a5b"/>
    </defs>
    <g clip-path="url(#pa8025cc720)">
     <use xlink:href="#m1cc4614c5e" x="703.053846" y="255.736655" style="fill: #ff8a5b; stroke: #ff8a5b"/>
    </g>
   </g>
   <g id="text_14">
    <!-- 01 -->
    <g style="fill: #e8e6df" transform="translate(152.64664 124.019373) scale(0.085 -0.085)">
     <use xlink:href="#DejaVuSansMono-30"/>
     <use xlink:href="#DejaVuSansMono-31" transform="translate(60.205078 0)"/>
    </g>
   </g>
   <g id="text_15">
    <!-- 02 -->
    <g style="fill: #e8e6df" transform="translate(243.528297 177.398074) scale(0.085 -0.085)">
     <use xlink:href="#DejaVuSansMono-30"/>
     <use xlink:href="#DejaVuSansMono-32" transform="translate(60.205078 0)"/>
    </g>
   </g>
   <g id="text_16">
    <!-- 03 -->
    <g style="fill: #e8e6df" transform="translate(334.409953 208.379026) scale(0.085 -0.085)">
     <use xlink:href="#DejaVuSansMono-30"/>
     <use xlink:href="#DejaVuSansMono-33" transform="translate(60.205078 0)"/>
    </g>
   </g>
   <g id="text_17">
    <!-- 04 -->
    <g style="fill: #e8e6df" transform="translate(425.29161 222.426361) scale(0.085 -0.085)">
     <use xlink:href="#DejaVuSansMono-30"/>
     <use xlink:href="#DejaVuSansMono-34" transform="translate(60.205078 0)"/>
    </g>
   </g>
   <g id="text_18">
    <!-- 05 -->
    <g style="fill: #e8e6df" transform="translate(516.173267 232.881489) scale(0.085 -0.085)">
     <defs>
      <path id="DejaVuSansMono-35" d="M 647 4666 
L 3009 4666 
L 3009 4134 
L 1222 4134 
L 1222 2988 
Q 1356 3038 1492 3061 
Q 1628 3084 1766 3084 
Q 2491 3084 2916 2656 
Q 3341 2228 3341 1497 
Q 3341 759 2895 334 
Q 2450 -91 1678 -91 
Q 1306 -91 998 -41 
Q 691 9 447 109 
L 447 750 
Q 734 594 1025 517 
Q 1316 441 1619 441 
Q 2141 441 2423 716 
Q 2706 991 2706 1497 
Q 2706 1997 2414 2275 
Q 2122 2553 1600 2553 
Q 1347 2553 1106 2495 
Q 866 2438 647 2322 
L 647 4666 
z
" transform="scale(0.015625)"/>
     </defs>
     <use xlink:href="#DejaVuSansMono-30"/>
     <use xlink:href="#DejaVuSansMono-35" transform="translate(60.205078 0)"/>
    </g>
   </g>
   <g id="text_19">
    <!-- 06 -->
    <g style="fill: #e8e6df" transform="translate(607.054924 237.347708) scale(0.085 -0.085)">
     <use xlink:href="#DejaVuSansMono-30"/>
     <use xlink:href="#DejaVuSansMono-36" transform="translate(60.205078 0)"/>
    </g>
   </g>
   <g id="text_20">
    <!-- 07 -->
    <g style="fill: #e8e6df" transform="translate(697.936581 235.841688) scale(0.085 -0.085)">
     <defs>
      <path id="DejaVuSansMono-37" d="M 434 4666 
L 3372 4666 
L 3372 4397 
L 1703 0 
L 1044 0 
L 2669 4134 
L 434 4134 
L 434 4666 
z
" transform="scale(0.015625)"/>
     </defs>
     <use xlink:href="#DejaVuSansMono-30"/>
     <use xlink:href="#DejaVuSansMono-37" transform="translate(60.205078 0)"/>
    </g>
   </g>
  </g>
 </g>
 <defs>
  <clipPath id="pa8025cc720">
   <rect x="53.25" y="14" width="767.95" height="270.7"/>
  </clipPath>
 </defs>
</svg>
